<?xml version="1.0" encoding="UTF-8"?>
<!DOCTYPE svg PUBLIC "-//W3C//DTD SVG 1.1//EN" "http://www.w3.org/Graphics/SVG/1.1/DTD/svg11.dtd">
<svg xmlns="http://www.w3.org/2000/svg" version="1.1" width="88px" height="93px" style="shape-rendering:geometricPrecision; text-rendering:geometricPrecision; image-rendering:optimizeQuality; fill-rule:evenodd; clip-rule:evenodd" xmlns:xlink="http://www.w3.org/1999/xlink">
<g><path style="opacity:0.046" fill="#000000" d="M 35.5,0.5 C 35.5,0.166667 35.5,-0.166667 35.5,-0.5C 43.8333,-0.5 52.1667,-0.5 60.5,-0.5C 71.3171,2.74411 80.3171,8.74411 87.5,17.5C 87.5,21.5 87.5,25.5 87.5,29.5C 83.3927,19.0537 76.3927,11.0537 66.5,5.5C 65.8333,5.16667 65.1667,4.83333 64.5,4.5C 61.3724,2.84583 58.0391,1.67916 54.5,1C 48.1754,0.500461 41.8421,0.333794 35.5,0.5 Z"/></g>
<g><path style="opacity:1" fill="#565c60" d="M 35.5,0.5 C 41.8421,0.333794 48.1754,0.500461 54.5,1C 58.0391,1.67916 61.3724,2.84583 64.5,4.5C 64.9129,15.196 65.4129,25.8627 66,36.5C 61.8406,29.3301 55.6739,26.8301 47.5,29C 40.9654,32.569 37.9654,38.069 38.5,45.5C 35.4281,45.1826 32.4281,45.5159 29.5,46.5C 30.6888,47.4287 32.0222,47.762 33.5,47.5C 34.796,64.7271 35.4627,64.7271 35.5,47.5C 36.9778,47.238 38.3112,47.5713 39.5,48.5C 42.491,54.8295 47.491,57.8295 54.5,57.5C 54.665,60.8499 54.4983,64.1832 54,67.5C 51.3937,63.9407 48.5604,60.6074 45.5,57.5C 44.763,67.8908 45.0963,78.2241 46.5,88.5C 36.2871,89.3229 27.1204,86.6562 19,80.5C 19.3759,84.4407 19.8759,88.4407 20.5,92.5C 15.1667,92.5 9.83333,92.5 4.5,92.5C 3.28254,81.9609 1.61588,71.6276 -0.5,61.5C -0.5,54.8333 -0.5,48.1667 -0.5,41.5C 1.03954,39.1617 1.70621,36.4951 1.5,33.5C 6.28184,15.7178 17.6152,4.71776 35.5,0.5 Z"/></g>
<g><path style="opacity:1" fill="#565c61" d="M 66.5,5.5 C 76.3927,11.0537 83.3927,19.0537 87.5,29.5C 87.5,31.8333 87.5,34.1667 87.5,36.5C 86.0278,32.8956 84.0278,29.5623 81.5,26.5C 79.1398,31.2246 77.1398,36.2246 75.5,41.5C 76.0016,42.521 76.6683,42.6877 77.5,42C 78.5701,37.7943 81.2367,36.461 85.5,38C 86.0659,38.9947 86.7326,39.828 87.5,40.5C 87.5,46.8333 87.5,53.1667 87.5,59.5C 86.3472,61.636 85.0138,63.636 83.5,65.5C 82.3689,62.1109 81.0355,58.7775 79.5,55.5C 78.675,54.6143 77.675,54.281 76.5,54.5C 75.3764,59.2068 74.0431,63.8734 72.5,68.5C 72.8333,69.1667 73.1667,69.8333 73.5,70.5C 75.3758,65.767 78.7092,64.4337 83.5,66.5C 75.8931,80.1443 64.2264,87.4776 48.5,88.5C 47.43,79.5221 46.93,70.5221 47,61.5C 49.6752,65.0053 52.5085,68.3386 55.5,71.5C 57.3042,51.6915 58.6376,51.6915 59.5,71.5C 69.5624,72.2816 73.0624,67.9483 70,58.5C 67.6557,56.2256 64.8224,55.0589 61.5,55C 65.5079,51.8112 67.5079,47.6445 67.5,42.5C 69.604,42.7989 71.604,42.4656 73.5,41.5C 71.9547,40.5481 70.288,40.2148 68.5,40.5C 67.8807,28.8304 67.2141,17.1637 66.5,5.5 Z"/></g>
<g><path style="opacity:0.998" fill="#eceded" d="M 8.5,25.5 C 12.226,25.1774 15.8927,25.5108 19.5,26.5C 17.9547,27.4519 16.288,27.7852 14.5,27.5C 13.8333,44.8333 13.1667,44.8333 12.5,27.5C 9.8127,27.6641 7.14603,27.4974 4.5,27C 6.05814,26.79 7.39147,26.29 8.5,25.5 Z"/></g>
<g><path style="opacity:1" fill="#ebebec" d="M 22.5,25.5 C 23.8221,25.33 24.9887,25.6634 26,26.5C 28.6761,30.7014 30.1761,35.0347 30.5,39.5C 28.5144,36.1573 25.5144,34.824 21.5,35.5C 21.6168,37.4835 20.9501,39.1502 19.5,40.5C 19.1667,40 18.8333,39.5 18.5,39C 20.1438,34.5708 21.4771,30.0708 22.5,25.5 Z"/></g>
<g><path style="opacity:1" fill="#60666a" d="M 23.5,28.5 C 25.1852,29.1837 26.1852,30.517 26.5,32.5C 25.1667,33.8333 23.8333,33.8333 22.5,32.5C 23.2458,31.2638 23.5792,29.9305 23.5,28.5 Z"/></g>
<g><path style="opacity:0.007" fill="#000000" d="M 1.5,33.5 C 1.70621,36.4951 1.03954,39.1617 -0.5,41.5C -0.5,40.1667 -0.5,38.8333 -0.5,37.5C 0.166667,36.1667 0.833333,34.8333 1.5,33.5 Z"/></g>
<g><path style="opacity:1" fill="#e8e9ea" d="M 87.5,36.5 C 87.5,37.8333 87.5,39.1667 87.5,40.5C 86.7326,39.828 86.0659,38.9947 85.5,38C 81.2367,36.461 78.5701,37.7943 77.5,42C 76.6683,42.6877 76.0016,42.521 75.5,41.5C 77.1398,36.2246 79.1398,31.2246 81.5,26.5C 84.0278,29.5623 86.0278,32.8956 87.5,36.5 Z"/></g>
<g><path style="opacity:1" fill="#5c6166" d="M 81.5,29.5 C 82.3913,31.2905 83.3913,33.1239 84.5,35C 83.2068,35.49 81.8734,35.6567 80.5,35.5C 80.5172,33.4352 80.8505,31.4352 81.5,29.5 Z"/></g>
<g><path style="opacity:1" fill="#eaebeb" d="M 39.5,23.5 C 40.4972,23.4701 41.1639,23.9701 41.5,25C 39.9127,29.9306 38.2461,34.764 36.5,39.5C 33.6394,35.1122 31.3061,30.4455 29.5,25.5C 30.1667,24.1667 30.8333,24.1667 31.5,25.5C 33.2743,28.7148 34.7743,32.0482 36,35.5C 37.4774,31.5701 38.6441,27.5701 39.5,23.5 Z"/></g>
<g><path style="opacity:1" fill="#e6e7e7" d="M 2.5,47.5 C 6.60345,46.7691 10.1034,47.7691 13,50.5C 13.6667,51.5 13.6667,52.5 13,53.5C 11.9328,54.9431 10.7662,56.2764 9.5,57.5C 10.6477,59.1487 11.981,60.6487 13.5,62C 12.5,62.6667 11.5,62.6667 10.5,62C 9.37827,59.8762 7.87827,58.0429 6,56.5C 5.66667,58.5 5.33333,60.5 5,62.5C 3.47134,57.636 2.63801,52.636 2.5,47.5 Z"/></g>
<g><path style="opacity:1" fill="#585d62" d="M 5.5,49.5 C 7.16667,49.5 8.83333,49.5 10.5,49.5C 11.5749,53.938 9.90825,55.938 5.5,55.5C 5.5,53.5 5.5,51.5 5.5,49.5 Z"/></g>
<g><path style="opacity:1" fill="#eceded" d="M 18.5,46.5 C 28.8554,46.0383 31.8554,50.5383 27.5,60C 18.4566,63.2922 14.29,60.1255 15,50.5C 16.3756,49.2949 17.5423,47.9616 18.5,46.5 Z"/></g>
<g><path style="opacity:1" fill="#575c61" d="M 19.5,48.5 C 27.619,48.4687 29.619,51.9687 25.5,59C 20.2491,60.712 17.2491,58.8787 16.5,53.5C 16.7573,51.3076 17.7573,49.6409 19.5,48.5 Z"/></g>
<g><path style="opacity:1" fill="#ecebea" d="M 64.5,4.5 C 65.1667,4.83333 65.8333,5.16667 66.5,5.5C 67.2141,17.1637 67.8807,28.8304 68.5,40.5C 70.288,40.2148 71.9547,40.5481 73.5,41.5C 71.604,42.4656 69.604,42.7989 67.5,42.5C 67.5079,47.6445 65.5079,51.8112 61.5,55C 64.8224,55.0589 67.6557,56.2256 70,58.5C 73.0624,67.9483 69.5624,72.2816 59.5,71.5C 58.6376,51.6915 57.3042,51.6915 55.5,71.5C 52.5085,68.3386 49.6752,65.0053 47,61.5C 46.93,70.5221 47.43,79.5221 48.5,88.5C 47.8333,88.5 47.1667,88.5 46.5,88.5C 45.0963,78.2241 44.763,67.8908 45.5,57.5C 48.5604,60.6074 51.3937,63.9407 54,67.5C 54.4983,64.1832 54.665,60.8499 54.5,57.5C 47.491,57.8295 42.491,54.8295 39.5,48.5C 38.3112,47.5713 36.9778,47.238 35.5,47.5C 35.4627,64.7271 34.796,64.7271 33.5,47.5C 32.0222,47.762 30.6888,47.4287 29.5,46.5C 32.4281,45.5159 35.4281,45.1826 38.5,45.5C 37.9654,38.069 40.9654,32.569 47.5,29C 55.6739,26.8301 61.8406,29.3301 66,36.5C 65.4129,25.8627 64.9129,15.196 64.5,4.5 Z"/></g>
<g><path style="opacity:1" fill="#f0893f" d="M 48.5,30.5 C 62.8782,30.3672 67.7115,37.0339 63,50.5C 53.9204,58.2527 46.5871,56.9193 41,46.5C 39.5742,39.2597 42.0742,33.9264 48.5,30.5 Z"/></g>
<g><path style="opacity:1" fill="#5e6469" d="M 60.5,57.5 C 69.8176,57.6546 71.8176,61.488 66.5,69C 64.8659,69.4935 63.1992,69.6602 61.5,69.5C 60.7279,65.5483 60.3946,61.5483 60.5,57.5 Z"/></g>
<g><path style="opacity:0.155" fill="#000000" d="M 87.5,59.5 C 87.5,65.5 87.5,71.5 87.5,77.5C 82.2788,83.4426 76.2788,88.4426 69.5,92.5C 53.1667,92.5 36.8333,92.5 20.5,92.5C 19.8759,88.4407 19.3759,84.4407 19,80.5C 27.1204,86.6562 36.2871,89.3229 46.5,88.5C 47.1667,88.5 47.8333,88.5 48.5,88.5C 64.2264,87.4776 75.8931,80.1443 83.5,66.5C 83.5,66.1667 83.5,65.8333 83.5,65.5C 85.0138,63.636 86.3472,61.636 87.5,59.5 Z"/></g>
<g><path style="opacity:1" fill="#edeeee" d="M 83.5,65.5 C 83.5,65.8333 83.5,66.1667 83.5,66.5C 78.7092,64.4337 75.3758,65.767 73.5,70.5C 73.1667,69.8333 72.8333,69.1667 72.5,68.5C 74.0431,63.8734 75.3764,59.2068 76.5,54.5C 77.675,54.281 78.675,54.6143 79.5,55.5C 81.0355,58.7775 82.3689,62.1109 83.5,65.5 Z"/></g>
<g><path style="opacity:1" fill="#5b6065" d="M 77.5,58.5 C 81.5462,61.464 81.2129,63.1307 76.5,63.5C 76.6287,61.7839 76.962,60.1172 77.5,58.5 Z"/></g>
<g><path style="opacity:0.115" fill="#020202" d="M -0.5,61.5 C 1.61588,71.6276 3.28254,81.9609 4.5,92.5C 2.83333,92.5 1.16667,92.5 -0.5,92.5C -0.5,82.1667 -0.5,71.8333 -0.5,61.5 Z"/></g>
</svg>
