<?xml version="1.0" encoding="UTF-8"?>
<!DOCTYPE svg PUBLIC "-//W3C//DTD SVG 1.1//EN" "http://www.w3.org/Graphics/SVG/1.1/DTD/svg11.dtd">
<svg xmlns="http://www.w3.org/2000/svg" version="1.1" width="300px" height="100px" style="shape-rendering:geometricPrecision; text-rendering:geometricPrecision; image-rendering:optimizeQuality; fill-rule:evenodd; clip-rule:evenodd" xmlns:xlink="http://www.w3.org/1999/xlink">
<g><path style="opacity:0.883" fill="#c61270" d="M 217.5,-0.5 C 225.5,-0.5 233.5,-0.5 241.5,-0.5C 260.706,2.35311 277.206,10.6864 291,24.5C 291.739,22.7795 292.573,21.1128 293.5,19.5C 293.71,22.386 293.877,25.386 294,28.5C 295.789,31.3745 297.289,34.3745 298.5,37.5C 298.167,38.1667 297.833,38.8333 297.5,39.5C 296.257,36.6806 294.757,34.0139 293,31.5C 288.544,53.2497 278.71,72.083 263.5,88C 254.43,94.3812 244.43,96.2146 233.5,93.5C 234.279,90.4553 235.613,87.7886 237.5,85.5C 244.794,87.3354 251.794,86.5021 258.5,83C 259.381,82.2917 260.047,81.4584 260.5,80.5C 262.619,80.5323 263.952,79.5323 264.5,77.5C 276.774,63.6298 285.441,47.6298 290.5,29.5C 282.995,22.5729 274.328,17.4063 264.5,14C 248.028,8.90394 231.361,7.90394 214.5,11C 200.786,15.7707 196.953,24.9374 203,38.5C 206.667,43.5 211,47.8333 216,51.5C 218.995,54.9866 220.828,58.9866 221.5,63.5C 221.334,67.8461 221.501,72.1794 222,76.5C 223.084,78.7823 224.584,79.1157 226.5,77.5C 228.5,80.1667 230.833,82.5 233.5,84.5C 233.834,87.491 232.834,89.8243 230.5,91.5C 224.316,88.7988 219.65,84.4655 216.5,78.5C 217.867,76.8583 218.201,75.1916 217.5,73.5C 216.818,74.2427 216.151,74.9094 215.5,75.5C 215.5,74.8333 215.167,74.5 214.5,74.5C 214.533,67.1302 214.699,59.7968 215,52.5C 213.951,51.4829 212.784,51.3162 211.5,52C 209.677,52.9973 208.01,54.1639 206.5,55.5C 190.324,44.1281 186.491,29.4614 195,11.5C 201.239,4.96614 208.739,0.96614 217.5,-0.5 Z M 264.5,77.5 C 262.969,68.4339 265.136,60.4339 271,53.5C 271.998,56.0278 272.831,56.0278 273.5,53.5C 273.5,51.5 272.5,50.5 270.5,50.5C 267.896,51.269 266.062,52.9357 265,55.5C 264.411,53.1367 262.911,52.1367 260.5,52.5C 260.5,61.8333 260.5,71.1667 260.5,80.5C 260.047,81.4584 259.381,82.2917 258.5,83C 251.794,86.5021 244.794,87.3354 237.5,85.5C 239.07,73.754 238.57,62.0874 236,50.5C 234.989,49.6634 233.822,49.33 232.5,49.5C 232.339,58.5013 229.839,66.8346 225,74.5C 224.333,71.1667 224.333,67.8333 225,64.5C 226.652,59.9013 227.652,55.2346 228,50.5C 226.853,49.5419 225.853,49.8753 225,51.5C 223.808,55.6227 222.641,59.6227 221.5,63.5C 220.828,58.9866 218.995,54.9866 216,51.5C 211,47.8333 206.667,43.5 203,38.5C 196.953,24.9374 200.786,15.7707 214.5,11C 231.361,7.90394 248.028,8.90394 264.5,14C 274.328,17.4063 282.995,22.5729 290.5,29.5C 285.441,47.6298 276.774,63.6298 264.5,77.5 Z M 250.5,55.5 C 253.309,55.5878 254.642,57.0878 254.5,60C 253.832,66.8728 251.166,72.7061 246.5,77.5C 245.914,77.2907 245.414,76.9574 245,76.5C 244.474,68.9056 246.308,61.9056 250.5,55.5 Z M 233.5,84.5 C 230.833,82.5 228.5,80.1667 226.5,77.5C 230.056,72.3807 232.556,66.714 234,60.5C 236.153,68.5977 235.986,76.5977 233.5,84.5 Z"/></g>
<g><path style="opacity:0.732" fill="#3e4d99" d="M 78.5,35.5 C 80.7224,35.5587 81.7224,36.7253 81.5,39C 78.0058,51.7461 77.1725,64.5794 79,77.5C 79.414,77.0426 79.914,76.7093 80.5,76.5C 81.8344,78.8183 81.1677,80.485 78.5,81.5C 77.5224,81.0233 76.6891,80.3567 76,79.5C 74.8263,75.9542 74.1596,72.2875 74,68.5C 71.9039,73.0268 69.0706,77.0268 65.5,80.5C 61.5319,83.676 58.8652,82.8427 57.5,78C 59.5157,69.8023 63.0157,62.3023 68,55.5C 69.9905,53.0945 72.3238,52.4279 75,53.5C 76.1219,47.4744 77.2885,41.4744 78.5,35.5 Z M 71.5,56.5 C 72.5,56.5 73.5,56.5 74.5,56.5C 73.5704,65.7806 69.2371,73.1139 61.5,78.5C 61.1667,78.3333 60.8333,78.1667 60.5,78C 62.7242,70.0508 66.3909,62.8841 71.5,56.5 Z"/></g>
<g><path style="opacity:0.729" fill="#3e4d99" d="M 127.5,35.5 C 129.484,35.484 130.484,36.484 130.5,38.5C 127.316,50.9874 126.149,63.654 127,76.5C 127.741,77.6405 128.575,77.6405 129.5,76.5C 130.834,78.8183 130.168,80.485 127.5,81.5C 126.522,81.0233 125.689,80.3567 125,79.5C 123.826,75.9542 123.16,72.2875 123,68.5C 120.346,73.6332 116.846,78.1332 112.5,82C 109.144,83.0307 107.144,81.8641 106.5,78.5C 108.508,69.3188 112.508,61.1522 118.5,54C 120.298,52.4947 122.132,52.3281 124,53.5C 124.847,47.4164 126.013,41.4164 127.5,35.5 Z M 121.5,55.5 C 123.938,58.2244 124.105,61.2244 122,64.5C 119.351,70.126 115.518,74.7927 110.5,78.5C 111.654,69.8512 115.32,62.1845 121.5,55.5 Z"/></g>
<g><path style="opacity:0.757" fill="#3e4d99" d="M 17.5,36.5 C 20.2723,36.5952 22.2723,37.9285 23.5,40.5C 23.0814,41.6721 22.4147,42.6721 21.5,43.5C 17.6984,40.5721 14.5317,41.2388 12,45.5C 5.88188,54.6379 3.54855,64.6379 5,75.5C 8.68452,80.584 12.6845,80.584 17,75.5C 19.2637,71.2956 21.7637,67.2956 24.5,63.5C 24.7631,72.4505 20.7631,78.9505 12.5,83C 6.66197,83.8632 2.82864,81.3632 1,75.5C -0.0323963,63.9265 2.63427,53.2599 9,43.5C 11.4639,40.519 14.2972,38.1856 17.5,36.5 Z"/></g>
<g><path style="opacity:0.658" fill="#3e4d99" d="M 51.5,42.5 C 54.9563,43.5362 55.2896,45.2029 52.5,47.5C 50.2957,46.218 49.9624,44.5514 51.5,42.5 Z"/></g>
<g><path style="opacity:0.756" fill="#414e99" d="M 237.5,85.5 C 235.613,87.7886 234.279,90.4553 233.5,93.5C 232.585,95.7541 231.252,97.7541 229.5,99.5C 226.833,99.5 224.167,99.5 221.5,99.5C 219.5,97.329 217.666,94.9957 216,92.5C 215.192,90.4213 215.359,88.4213 216.5,86.5C 217.948,88.6667 219.115,91 220,93.5C 224.482,97.7249 227.982,97.0582 230.5,91.5C 232.834,89.8243 233.834,87.491 233.5,84.5C 235.986,76.5977 236.153,68.5977 234,60.5C 232.556,66.714 230.056,72.3807 226.5,77.5C 224.584,79.1157 223.084,78.7823 222,76.5C 221.501,72.1794 221.334,67.8461 221.5,63.5C 222.641,59.6227 223.808,55.6227 225,51.5C 225.853,49.8753 226.853,49.5419 228,50.5C 227.652,55.2346 226.652,59.9013 225,64.5C 224.333,67.8333 224.333,71.1667 225,74.5C 229.839,66.8346 232.339,58.5013 232.5,49.5C 233.822,49.33 234.989,49.6634 236,50.5C 238.57,62.0874 239.07,73.754 237.5,85.5 Z"/></g>
<g><path style="opacity:0.739" fill="#3e4d99" d="M 98.5,50.5 C 101.541,50.3794 103.208,51.8794 103.5,55C 101.813,61.7491 101.313,68.5825 102,75.5C 104.412,71.3102 105.412,71.6435 105,76.5C 103.867,78.2112 102.367,78.7112 100.5,78C 98.683,76.2002 97.5163,74.0336 97,71.5C 94.654,76.5127 90.9873,80.1794 86,82.5C 84.1387,81.3913 83.3053,79.7247 83.5,77.5C 85.6837,66.787 90.6837,57.787 98.5,50.5 Z M 98.5,54.5 C 99.5176,57.3768 99.3509,60.3768 98,63.5C 95.0514,68.9382 91.5514,73.9382 87.5,78.5C 86.3861,77.277 86.2195,75.9437 87,74.5C 90.087,67.3161 93.9203,60.6495 98.5,54.5 Z"/></g>
<g><path style="opacity:0.719" fill="#3f4e99" d="M 264.5,77.5 C 263.952,79.5323 262.619,80.5323 260.5,80.5C 260.5,71.1667 260.5,61.8333 260.5,52.5C 262.911,52.1367 264.411,53.1367 265,55.5C 266.062,52.9357 267.896,51.269 270.5,50.5C 272.5,50.5 273.5,51.5 273.5,53.5C 272.831,56.0278 271.998,56.0278 271,53.5C 265.136,60.4339 262.969,68.4339 264.5,77.5 Z"/></g>
<g><path style="opacity:0.741" fill="#3e4d99" d="M 142.5,51.5 C 144.582,51.6243 146.082,52.6243 147,54.5C 149.046,62.6718 147.713,70.3385 143,77.5C 139.367,82.5374 136.034,82.5374 133,77.5C 131.859,70.1839 132.859,63.1839 136,56.5C 138.352,54.9697 140.519,53.3031 142.5,51.5 Z M 142.5,54.5 C 143.117,54.6107 143.617,54.944 144,55.5C 145.173,62.6527 143.84,69.3194 140,75.5C 138.89,77.0368 137.39,77.7035 135.5,77.5C 134.817,68.8848 137.15,61.2181 142.5,54.5 Z"/></g>
<g><path style="opacity:0.729" fill="#3e4d99" d="M 251.5,51.5 C 253.39,51.2965 254.89,51.9632 256,53.5C 258.196,60.7418 257.529,67.7418 254,74.5C 252.305,77.6945 249.805,80.0278 246.5,81.5C 244.259,80.9682 242.759,79.6349 242,77.5C 240.01,66.7066 243.177,58.04 251.5,51.5 Z M 250.5,55.5 C 246.308,61.9056 244.474,68.9056 245,76.5C 245.414,76.9574 245.914,77.2907 246.5,77.5C 251.166,72.7061 253.832,66.8728 254.5,60C 254.642,57.0878 253.309,55.5878 250.5,55.5 Z"/></g>
<g><path style="opacity:0.743" fill="#3e4d99" d="M 39.5,52.5 C 41.7224,52.5587 42.7224,53.7253 42.5,56C 40.8729,62.3318 41.2063,68.4985 43.5,74.5C 45.7841,73.157 46.6174,73.8236 46,76.5C 44.8668,78.2112 43.3668,78.7112 41.5,78C 39.7449,75.0699 38.5783,71.9033 38,68.5C 36.7115,74.0958 33.7115,78.4291 29,81.5C 26.9822,79.6262 25.8156,77.2929 25.5,74.5C 26.5591,68.4784 27.7258,62.4784 29,56.5C 30.2949,52.9162 31.7949,52.7495 33.5,56C 30.6507,62.8961 29.484,70.0628 30,77.5C 34.8489,69.8029 38.0155,61.4695 39.5,52.5 Z"/></g>
<g><path style="opacity:0.727" fill="#3e4d99" d="M 51.5,54.5 C 52.9221,54.7496 53.9221,55.583 54.5,57C 52.115,64.1113 51.9483,71.278 54,78.5C 55.1562,77.0072 55.9896,77.1739 56.5,79C 56.2664,80.7324 55.2664,81.5658 53.5,81.5C 51.6473,80.8113 50.4807,79.478 50,77.5C 47.9452,69.6244 48.4452,61.9577 51.5,54.5 Z"/></g>
<g><path style="opacity:0.719" fill="#3e4d99" d="M 163.5,54.5 C 165.252,54.4176 166.252,55.2509 166.5,57C 165.524,60.8247 165.024,64.658 165,68.5C 166.412,63.3333 169.078,58.9999 173,55.5C 173.772,55.6448 174.439,55.9781 175,56.5C 175.333,62.1667 175.667,67.8333 176,73.5C 179.194,68.4455 181.861,63.1122 184,57.5C 184.779,56.2718 185.779,55.2718 187,54.5C 187.5,54.8333 188,55.1667 188.5,55.5C 189.463,61.7945 190.297,68.1278 191,74.5C 191.333,74.8333 191.667,75.1667 192,75.5C 194.351,72.5672 195.351,72.9006 195,76.5C 190.321,79.8069 187.655,78.4736 187,72.5C 186.667,68.1667 186.333,63.8333 186,59.5C 183.737,65.861 180.571,71.6944 176.5,77C 175.5,77.6667 174.5,77.6667 173.5,77C 172.691,71.5829 172.191,66.0829 172,60.5C 168.911,66.7649 166.411,73.2649 164.5,80C 164.15,81.2575 163.483,81.5908 162.5,81C 161.02,72.1018 161.353,63.2685 163.5,54.5 Z"/></g>
<g><path style="opacity:0.766" fill="#3f4e99" d="M 214.5,74.5 C 215.167,74.5 215.5,74.8333 215.5,75.5C 216.151,74.9094 216.818,74.2427 217.5,73.5C 218.201,75.1916 217.867,76.8583 216.5,78.5C 214.61,78.7035 213.11,78.0368 212,76.5C 211.784,74.6161 211.117,72.9494 210,71.5C 207.694,76.3062 204.194,79.9729 199.5,82.5C 198.522,82.0233 197.689,81.3567 197,80.5C 197.352,71.1234 200.519,62.79 206.5,55.5C 208.01,54.1639 209.677,52.9973 211.5,52C 212.784,51.3162 213.951,51.4829 215,52.5C 214.699,59.7968 214.533,67.1302 214.5,74.5 Z M 209.5,58.5 C 210.167,59.8333 210.833,61.1667 211.5,62.5C 208.818,68.5372 205.151,73.8705 200.5,78.5C 201.259,70.9704 204.259,64.3037 209.5,58.5 Z"/></g>
<g><path style="opacity:1" fill="#d1106d" d="M 211.5,62.5 C 210.833,61.1667 210.167,59.8333 209.5,58.5C 210.031,56.4559 211.198,54.7893 213,53.5C 213.137,56.6795 212.637,59.6795 211.5,62.5 Z"/></g>
</svg>
