<svg version="1.1" xmlns="http://www.w3.org/2000/svg" xmlns:xlink="http://www.w3.org/1999/xlink" x="0px" y="0px" viewBox="0 0 175 88" style="enable-background:new 0 0 175 88;" xml:space="preserve">
 <style type="text/css">
  .st0{fill:#FD8624;}
	.st1{fill:#FFFFFF;}
	.st2{fill:#003A70;}
	.st3{fill:#1F3675;}
 </style>
 <g id="schild">
 </g>
 <g id="NL">
  <g>
   <path class="st0" d="M59.5922966,2.4107559c0-0.3578651-0.3528481-0.6005108-0.7082787-0.6444676
			c-6.3744621-0.7905281-14.4355507-1.8526084-29.0877113-1.7607055C10.3860722-0.0073653,1.5553591,1.6516186,0.7089534,1.7662883
			C0.2906479,1.8009281,0.0003185,2.0528908,0.0003185,2.4107559c-0.0007167,4.7251797,0,34.2403984,0,48.964653
			c0,15.9061241,17.9284401,26.8605461,29.5253677,32.8088875c0.1903763,0.0977554,0.3521557,0.0998611,0.5415993,0
			c11.3015575-5.9483414,29.5250111-16.9027634,29.5250111-32.8088875
			C59.5922966,51.3754082,59.5932274,19.8026371,59.5922966,2.4107559">
   </path>
   <path class="st1" d="M52.5466309,42.6177025c-0.4790573-0.3049011-1.1135139-0.1635246-1.4180832,0.3158913
			c-1.5315781,2.407608-4.3498039,4.3960075-6.1042976,3.5213623c-2.5319786-1.2635155-2.5713959-4.4270134-2.3215332-6.375515
			c3.5914764-1.0337219,5.0772133-3.3461571,5.3794632-4.9324455c0.3129539-1.6414719-0.3877487-3.0468674-1.7433128-3.4961834
			c-1.5971565-0.5306339-3.3117561,1.0002537-4.588459,4.0924664c-0.3513451,0.8514214-0.6303749,1.7403984-0.8305435,2.6304283
			c-0.9817162,0.1634254-2.1288185,0.2279282-3.465271,0.1531563c-0.5480003-0.0312729-1.0403862-0.1297226-1.4782829-0.2799644
			c1.0588303-2.3934898,2.0303955-5.4553871,0.9726143-6.9979324c-0.2739906-0.3994083-0.9245491-1.0385246-2.1971664-0.8268166
			c-2.2405739,0.3700008-3.6609974,2.2052422-3.5346699,4.5661964c0.0790749,1.4741974,0.7971706,2.9955292,2.096735,4.0798759
			c-0.1284294,0.247303-0.2641945,0.499958-0.4065056,0.7566986c-2.2562199,4.0670509-4.3775864,5.800209-5.1649609,5.7155228
			c-3.3775234-0.3200722-4.8894196-3.1081963-5.4902649-4.7417374c-0.1898975-0.5165138-0.336174-1.0442352-0.4422188-1.5672951
			c3.1199951-1.3810997,3.8061256-3.1135674,3.8852005-4.2081871c0.0998573-1.3795967-0.7253094-2.6431351-2.0063381-3.0740318
			c-1.0486774-0.3526325-2.0420513-0.1178226-2.7986336,0.6604729c-1.0148258,1.0442352-1.4753437,3.0597954-1.331768,5.2724915
			c-0.8337917,0.267704-1.8115425,0.512188-2.9503803,0.7190018c-0.3865547,0.0704727-0.7565804,0.1171303-1.1080427,0.1404457
			c-0.293602-3.097229-0.844758-4.7303162-1.8525848-5.5566292c-0.5114985-0.4189987-1.1299744-0.5977173-1.7900896-0.5184021
			c-0.9414616,0.1151466-1.7204514,0.7744255-2.1371088,1.8093414c-0.5908117,1.4680138-0.3110895,3.2280006,0.7130785,4.484066
			c0.4928408,0.6046906,1.4522676,1.4304543,3.148448,1.7349014c0.1867437,3.7866325-0.2940807,5.9651413-0.7334805,6.3258286
			c-0.2307491-0.0620651-0.8425589-0.5456848-1.3392467-2.2219162c-0.1612062-0.5438232-0.7340765-0.8547935-1.276823-0.6926537
			c-0.5440598,0.1614456-0.8543367,0.7327881-0.6931305,1.2770615c0.8041697,2.7116051,2.0700274,3.4590836,2.893117,3.6422195
			c-0.4948235,0.47686-0.779563,1.011795-0.7834091,1.6120644c-0.0023413,0.4064102,0.1144304,1.0108871,0.6861067,1.5864334
			c0.5810413,0.5846214,2.3483639,2.3632698,14.5260706,2.3632698l0.7823582-0.0016251l0.1871014,0.0009308
			c0.1344986,0.0025826,0.4739456,0.0063095,0.9703922,0.0063095c6.6601353,0,14.9989643-0.4404755,16.9025288-2.5396729
			c0.4978561-0.5491714,0.5585136-1.11306,0.5217705-1.4891281c-0.0708084-0.7215843-0.3927422-1.3561363-0.9787788-1.90765
			c2.6823158,0.4278603,5.8294754-1.8117828,7.6157188-4.6206627
			C53.1662788,43.5567284,53.0253754,42.9221497,52.5466309,42.6177025 M45.6921768,33.6005783
			c0.3856277,0.1278572,0.4644852,0.675621,0.3717461,1.1618195c-0.1621361,0.850708-0.9667854,2.1136513-2.8421364,2.9451256
			C44.0041466,35.1823273,45.2553101,33.639782,45.6921768,33.6005783 M12.0254431,37.6617966
			c-0.631424-0.7744255-0.6494846-1.7969704-0.3991699-2.4188118c0.1227207-0.3055,0.3112087-0.5159416,0.4794149-0.5364647
			c0.020999-0.0029144,0.0401344-0.0043221,0.0583382-0.0043221c0.0695181,0,0.1189699,0.0209961,0.1805573,0.0714035
			c0.34377,0.2819214,0.7891426,1.1791878,1.0702505,3.7747116C12.8283224,38.3668251,12.3584633,38.0695915,12.0254431,37.6617966
			 M33.2686958,34.8786926c-0.054493-1.0205612,0.3944893-2.1944923,1.8180656-2.4295387
			c0.0634499-0.010273,0.1110611-0.0136414,0.1447716-0.0136414c0.016674,0,0.0303154,0.0004539,0.0405846,0.0019798
			c0.2507935,0.4185219,0.0314865,2.1514435-1.0406265,4.6867905
			C33.6260834,36.4609184,33.3100967,35.6479836,33.2686958,34.8786926 M22.3631554,34.0421066
			c0.1153622-0.1189957,0.2324677-0.1960869,0.4025383-0.1960869c0.0768757,0,0.1648369,0.0159569,0.2685184,0.0503845
			c0.3310604,0.111515,0.6474056,0.4834976,0.6118336,0.9788971c-0.0460835,0.6369171-0.6539268,1.4348984-2.0581532,2.1752586
			C21.5901146,35.6746902,21.8803482,34.5385551,22.3631554,34.0421066 M15.6444426,40.7912292
			c0.4146986-0.0277596,0.8581839-0.0830383,1.3311968-0.1688995c1.0900784-0.198307,2.0461121-0.4274063,2.8843479-0.6793709
			c0.1206169,0.5267906,0.2751827,1.0524063,0.4639111,1.5649567c0.694994,1.8897095,1.7686119,3.3965645,3.1135674,4.4440727
			c-3.1270905,0.2629013-6.3101768,0.7969284-8.5808516,1.6717873
			C15.6378012,46.0266418,15.7641296,43.354454,15.6444426,40.7912292 M28.8007107,52.5383987
			c-0.4781246,0-0.8050995-0.0035095-0.9350357-0.0056114l-0.2224579-0.0013885l-0.7823582,0.0013885
			c-10.5061321,0-12.6591043-1.3451729-13.0687857-1.7571716c-0.057622-0.0583382-0.087245-0.1073341-0.0920229-0.0998573
			c0.3031588-0.9751701,5.6921806-2.8728104,14.4907131-2.8728104l0.2675877,0.0009308
			c14.0622787,0.0653152,15.56493,2.2750931,15.7094612,2.8879814
			C43.6988831,51.2169991,40.1008835,52.5383987,28.8007107,52.5383987 M31.1320419,45.7891312
			c1.2926865-1.2861633,2.4259338-3.0008812,3.1737709-4.2714195c0.1069527-0.1814919,0.405117-0.6970749,0.7771034-1.4137611
			c0.6700287,0.2594185,1.4228592,0.4264526,2.2553825,0.4742813c1.2038193,0.0676537,2.2854881,0.033371,3.2549477-0.0811768
			c-0.0565681,0.6982422-0.0590286,1.3789978-0.0043221,2.0238457c0.1684456,1.9899979,0.861454,3.5803947,2.0151024,4.701149
			C40.1350479,46.3873024,36.3578758,45.9225807,31.1320419,45.7891312">
   </path>
   <path class="st1" d="M10.2368822,30.8264561c0.441741,0,0.8495359-0.2874146,0.9833403-0.7314968
			c0.1041584-0.3476162,0.9968624-3.4522018,0.198307-5.5071793c-0.5437012-1.3982773-1.6863852-2.2332401-3.0561857-2.2332401
			c-0.4935341,0-0.9911528,0.1130447-1.4021001,0.3179932c-1.3891759,0.6949711-2.4491539,2.3454247-1.6866241,4.4665527
			c0.8922496,2.4805202,4.2907724,3.5342159,4.6757288,3.6463051C10.0451212,30.813055,10.1415873,30.8264561,10.2368822,30.8264561
			 M9.507822,28.4183693c-0.8915329-0.4149132-1.9870825-1.1021919-2.3007517-1.9746132
			c-0.439424-1.2219963,0.3239179-1.75951,0.671773-1.9334507c0.0978518-0.0487576,0.27633-0.1010036,0.4835005-0.1010036
			c0.5190954,0,0.902976,0.3105164,1.1411781,0.9228039C9.8185768,26.1424618,9.6920099,27.4370117,9.507822,28.4183693">
   </path>
   <path class="st1" d="M23.3785553,28.7325153c0.1829224,0.1395149,0.4022026,0.2099667,0.6223221,0.2099667
			c0.1851196,0,0.3704777-0.0496902,0.5352917-0.1504803c0.3366528-0.205761,3.276186-2.0836926,2.8662891-4.7072163
			c-0.2766895-1.7690907-1.7821579-3.1028423-3.5024662-3.1028423c-1.2216625,0-2.7384319,0.7816658-2.9926167,2.9840889
			C20.6049099,26.5874767,23.2650566,28.6459637,23.3785553,28.7325153 M22.9482574,24.2015572
			c0.061348-0.5314693,0.2762108-1.1648521,0.9517345-1.1648521c0.6190491,0,1.3389835,0.5108051,1.4725494,1.3653584
			c0.1237717,0.7916985-0.656723,1.6513863-1.3009758,2.1904297C23.5060539,26.0014191,22.8469906,25.0793304,22.9482574,24.2015572
			">
   </path>
   <path class="st1" d="M36.7867851,26.7424946c0.1973763,0.1839504,0.4486237,0.2762108,0.7007065,0.2762108
			c0.2429771,0,0.4855995-0.0858345,0.6803017-0.2575531c2.9742928-2.6282997,3.9344101-5.4047642,2.7764397-8.0296974
			c-0.4865341-1.1016178-1.6659622-1.8418808-2.9347343-1.8418808c-1.6075249,0-2.9026718,1.120657-3.4644585,2.997633
			C33.4422531,23.569561,36.6496124,26.6147575,36.7867851,26.7424946 M36.5130119,20.4765129
			c0.2957039-0.9882374,0.8272705-1.5325375,1.4964867-1.5325375c0.4533997,0,0.8974838,0.2596798,1.0552025,0.6170902
			c0.264431,0.5996761,1.0260315,2.3244267-1.5083847,4.946804C36.8985405,23.6345158,36.0299683,22.0904408,36.5130119,20.4765129">
   </path>
   <path class="st1" d="M54.0826569,24.3191185c-0.5741386-1.0037422-1.5523415-1.6034412-2.6173363-1.6034412
			c-0.5588722,0-1.1264877,0.1581726-1.687912,0.4704571c-2.2954979,1.2765846-1.9173279,5.2138157-1.8667068,5.6587105
			c0.0514336,0.4509621,0.392746,0.8147755,0.8397408,0.8945675c0.2945328,0.0528431,0.6120491,0.0795517,0.9443779,0.0795517
			c1.5489731,0,3.5430794-0.5747108,4.4929504-2.1874924C54.7390442,26.6959591,54.6977386,25.3959141,54.0826569,24.3191185
			 M52.4175072,26.588623c-0.4412842,0.7490082-1.5640221,1.1197262-2.5045509,1.1698704
			c0.008049-1.0443554,0.2013397-2.4090195,0.8630791-2.7771568c0.2523232-0.1399689,0.4837379-0.2108974,0.6892853-0.2108974
			c0.4424324,0,0.7121239,0.3559055,0.8334312,0.5683079C52.5388184,25.7587967,52.5900383,26.296072,52.4175072,26.588623">
   </path>
   <g>
    <path class="st0" d="M128.3277435,45.1545792c-0.0188904-0.0123749-1.9132614-1.2649498-4.5935898-3.8223228
				c-1.048439-1.0003738-2.312912-2.2964516-3.6816635-3.8798485c2.2566757-3.8619804,3.6914597-7.4728107,3.8015594-7.7528915
				c0.2412415-0.6140327-0.0608902-1.3073788-0.6749268-1.5486145c-0.6140289-0.2412357-1.3071365,0.060894-1.5483704,0.6749268
				c-0.0121384,0.0307941-1.2327499,3.1203289-3.1623306,6.5783615c-0.0149307,0.0268288-0.030098,0.0521507-0.0450287,0.0788612
				c-1.3885803-1.7508888-2.835022-3.7689075-4.242012-6.0613937c-0.3452759-0.562479-1.0806427-0.7388325-1.6428833-0.3932228
				c-0.5622406,0.3450603-0.7383804,1.0805244-0.3933411,1.6427631c1.6461563,2.6821957,3.3408051,5.0112095,4.9708328,7.0104275
				c-2.0436554,3.2267342-4.0670471,5.4411736-5.9203491,6.4599648c-0.0237961,0.0130692-0.0471115,0.0268288-0.0699692,0.0415459
				c-0.3152008,0.2022476-0.8960953,0.5139351-1.2420883,0.3237991c-0.3431778-0.188488-0.5976944-0.8368263-0.5960693-1.2908249
				c0-0.0324173-0.0002365-0.0527229-0.0027924-0.0851402c-0.0242767-0.4631004-0.0116577-6.5382538,0.0027924-10.5157127
				c0.0058289-0.3169441-0.0114212-2.5192471-1.5451279-4.0222549c-0.9376144-0.9189587-2.1948471-1.3483486-3.7380905-1.2795238
				c-4.6136627,0.20858-5.3714142,3.394104-5.4015121,3.5296535l0,0c-0.189415,0.6125259,0.1756821,1.2582855,0.7981262,1.4119186
				c0.6317596,0.1558304,1.2791367-0.1916656,1.4982071-0.8042889l0.0023422-0.0063076
				c0.0177231-0.0638084,0.4931946-1.6215248,3.2106323-1.7443409c0.8662109-0.0389633,1.4991379,0.1543274,1.9498825,0.5909309
				c0.602829,0.5838127,0.7710342,1.4867878,0.8181686,1.9617825c-1.1879501,0.307724-4.0819778,1.1265831-5.7661667,2.0215073
				c-1.9475403,1.0351334-3.1781845,3.206192-3.062706,5.4026871c0.1005478,1.9097519,1.1982269,3.4684029,2.9360428,4.1692238
				c0.7673111,0.3095856,1.4973068,0.4411697,2.1831741,0.4409294c1.4730453,0,2.7396011-0.6070328,3.7220078-1.3598862
				c0.0016479,0.1308899,0.0037537,0.2358589,0.0060654,0.3035164c0.0037308,1.1445465,0.5771713,2.6796379,1.8358154,3.3704262
				c0.3560028,0.1955147,0.8246918,0.3574142,1.3993073,0.3574142c0.6261673,0,1.3780899-0.1922417,2.2478104-0.7428207
				c2.3656158-1.3136864,4.5424957-3.8937073,6.3498611-6.6322594c4.4466019,5.0213623,8.0682983,7.426178,8.2885361,7.5701141
				c0.201561,0.1315804,0.4281006,0.1945801,0.651825,0.1945801c0.3893814,0,0.7710342-0.1903763,1.0003738-0.5403099
				C129.0332336,46.2564354,128.8787842,45.5161705,128.3277435,45.1545792z M106.8822479,39.4397507
				c-0.0130692,0.0200691-0.0294113,0.0368614-0.0415497,0.0579796c-0.0191116,0.0335884-2.0599899,3.3024178-4.9598694,2.1331444
				c-1.1863022-0.478508-1.4137802-1.5082664-1.4438553-2.0794868c-0.0564728-1.0709457,0.4777908-2.4657097,1.7979965-3.1674652
				c1.2262039-0.6516113,3.403801-1.3143997,4.6565933-1.663044
				C106.8873596,36.1431656,106.8831787,37.8907776,106.8822479,39.4397507z">
    </path>
    <g>
     <path class="st0" d="M101.5145569,3.8433149c0.8592377,0.0242717,1.5782623-0.7190268,1.6053009-1.6610622
					c0.026619-0.9415816-0.6485519-1.7252295-1.507782-1.7499552c-0.8594513-0.0245107-1.5780258,0.7190028-1.6050644,1.6605844
					C99.9799423,3.0347023,100.6546326,3.8183503,101.5145569,3.8433149z">
     </path>
     <path class="st0" d="M75.0485306,23.9319649c0,0.6596622,0.5348129,1.1944752,1.1944733,1.1944752
					c0.6596375,0,1.1944733-0.5348129,1.1944733-1.1944752v-8.0287666c3.9222794,1.2096462,6.4112091,0.2869606,7.8264999-0.7308998
					c1.9366989-1.3930216,2.9864273-3.7690258,2.9557266-6.6903553c-0.0306702-2.9413972-0.9836731-5.0916929-2.8325577-6.3912592
					c-3.629509-2.5508752-9.2975388-0.6213905-9.5367889-0.5383265c-0.4801331,0.1671549-0.8018265,0.6197419-0.8018265,1.128087
					v9.2677002c-1.6871033-1.4175081-2.7018127-3.2478275-3.1403046-4.1697006
					c-0.2833252-0.5957327-0.9956894-0.848866-1.5917816-0.5655127c-0.5957108,0.28333-0.8488388,0.9960499-0.5654831,1.5917826
					c0.6394424,1.34412,2.3091583,4.2967215,5.2975693,6.0625391V23.9319649z M77.4374771,3.5799329
					c1.468132-0.368257,4.612709-0.9188387,6.5803452,0.4683301c1.1808167,0.8326454,1.7909012,2.3327398,1.8131714,4.4586444
					c0.022171,2.1215811-0.6745682,3.7999153-1.9619064,4.725873c-1.4631119,1.0526438-3.6045456,1.1338205-6.1923752,0.2351685
					c-0.0806046-0.0279989-0.1603928-0.0572872-0.2392349-0.0876026V3.5799329z">
     </path>
     <path class="st0" d="M107.3241043,22.338438c-0.2689972-0.6020164-0.975647-0.8719425-1.5777817-0.6029472l-2.7475357,1.2280655
					c-0.6023712,0.2692337-0.8722992,0.9757671-0.6030655,1.578022c0.1983109,0.4439621,0.6343384,0.7073441,1.0911331,0.7073441
					c0.1628265,0,0.328476-0.0335884,0.4866486-0.1043968l2.7475357-1.2281837
					C107.3233871,23.6472263,107.5933151,22.9406929,107.3241043,22.338438z">
     </path>
     <path class="st0" d="M126.9594498,66.46315c-0.5974503,0.3625183-1.1169968,0.4378891-1.5439301,0.2232437
					c-0.4864349-0.2442474-0.8564377-0.8608551-0.9206085-1.5343781c-0.0870056-0.9147491-0.079071-5.5314484-0.0499039-9.7291489
					h2.940918c0.6597595,0,1.1944733-0.5347176,1.1944733-1.1944733c0-0.6597595-0.5347137-1.1944771-1.1944733-1.1944771
					h-2.9218063c0.0121384-1.372715,0.025444-2.5933266,0.036171-3.4744911
					c0.0079269-0.6597595-0.5202408-1.2010002-1.1797867-1.2091713c-0.0051346,0-0.0100327,0-0.0149307,0
					c-0.6529922,0-1.1860657,0.5251656-1.1942368,1.1797867c-0.0020981,0.1768303-0.0191345,1.5871239-0.0363846,3.5038757h-1.8694
					c-0.6597824,0-1.1944809,0.5347176-1.1944809,1.1944771c0,0.6597557,0.5346985,1.1944733,1.1944809,1.1944733h1.8502655
					c-0.0284729,4.0628433-0.0387268,8.9058456,0.0608978,9.9552155c0.1434784,1.5063782,0.9966202,2.825676,2.2270279,3.4434357
					c0.497406,0.2496262,1.0293045,0.3737564,1.5763931,0.3737564c0.7470016,0,1.5227203-0.2312088,2.2785797-0.6898575
					c0.5639038-0.3420258,0.7437592-1.076683,0.4015198-1.6407852
					C128.2582245,66.3012238,127.5240326,66.1206665,126.9594498,66.46315z">
     </path>
     <path class="st0" d="M119.4193192,21.5856075c0.6597824-0.0086479,1.1875-0.5504627,1.1788559-1.2100048l-0.1357651-10.339097
					c-0.0002365-0.0128288-0.0007172-0.0255375-0.0011673-0.0382471c-0.0704498-1.5599375-0.2575531-5.7037425-5.6798325-5.7933283
					c-0.0093384-0.0001192-0.0179672,0-0.0265884-0.0001192c-1.5696335,0.0087438-2.698082,0.5814948-3.4807968,1.2439275
					c-0.2829742-0.3924093-0.6637268-0.7061744-1.1251678-0.9097371c-1.1907578-0.5252585-2.6696091-0.2232714-3.8594284,0.7878528
					c-0.5025177,0.4272637-0.5638657,1.1810498-0.1364822,1.683805c0.4271698,0.5027547,1.1811905,0.5634103,1.6837082,0.1366
					c0.5440369-0.4624052,1.0687256-0.5453258,1.3479919-0.4225097c0.0597229,0.0263739,0.2391129,0.1054482,0.2596512,0.4780293
					c-0.0291672,2.2522326,0.0410461,10.3565855,0.0440826,10.7022181c0.0058517,0.6561508,0.5393753,1.1841087,1.1942596,1.1841087
					c0.0034866,0,0.0072098,0,0.0107269,0c0.6595154-0.0058289,1.1898117-0.5452309,1.18396-1.2048683
					c-0.0006943-0.0717411-0.0527191-6.0871696-0.0508575-9.2680349c0.065094-0.0856199,0.1236572-0.177762,0.1651917-0.282876
					c0.0067673-0.0172482,0.7026901-1.7211442,2.7640915-1.7394438c2.9264679,0.0528436,3.2257767,1.4804811,3.318161,3.4932451
					l0.1353073,10.3197479c0.0086517,0.6543808,0.5417175,1.1788521,1.1942368,1.1788521
					C119.4085922,21.5857277,119.4139709,21.5857277,119.4193192,21.5856075z">
     </path>
     <path class="st0" d="M126.3605881,19.3674183c0.9278259,0.4906197,1.9263382,0.7303257,2.923439,0.7303257
					c1.6325989-0.0001183,3.2610168-0.643177,4.5665436-1.8804626c0.4787292-0.4537811,0.4990082-1.2097664,0.0452576-1.6886082
					c-0.4537659-0.4786015-1.2096558-0.499361-1.6886139-0.045269c-1.3465729,1.2764874-3.2031555,1.5796452-4.7298355,0.7721081
					c-1.981163-1.0476265-2.8618469-3.5370102-2.3560562-6.6589642c0.3331375-2.0566254,1.2906036-3.3295064,2.8452911-3.7831445
					c1.719162-0.5018234,3.4849701,0.1663427,3.8279114,0.5504622c0.4388275,0.4922671,1.1937866,0.5352921,1.6865082,0.0961313
					c0.4922333-0.4391851,0.5351715-1.1942611,0.0958557-1.6865048c-1.0551758-1.182579-3.8300018-1.9682095-6.2796173-1.2533875
					c-1.4156418,0.4131694-3.8873978,1.7022481-4.534111,5.6942821
					C122.2398834,13.4428644,122.9103699,17.5428085,126.3605881,19.3674183z">
     </path>
     <path class="st0" d="M85.2406311,63.9528618c-1.6202316,1.3673592-3.7798462,1.6053276-5.502037,0.6082039
					c-2.0119553-1.1653099-2.8826065-3.6767426-2.3291092-6.7179985c0.364502-2.0026093,1.3564911-3.2703323,2.9482727-3.7681885
					c1.9140778-0.5986252,3.9943771,0.1245842,4.4229279,0.5522041c0.4667053,0.4661331,1.2229538,0.4652023,1.6891861-0.0016251
					c0.466011-0.4670639,0.4651947-1.2234039-0.0017471-1.6892967c-1.2068253-1.2045097-4.2366638-1.950367-6.8236847-1.1412735
					c-2.4357224,0.7619324-4.0642471,2.7580185-4.5851822,5.6203194c-0.742012,4.0763893,0.5596542,7.5205383,3.4820633,9.2131119
					c1.0853958,0.6287231,2.2798691,0.9376144,3.4778595,0.9376144c1.6774979,0,3.3619003-0.6058807,4.7620392-1.7872925
					c0.5042648-0.4253082,0.5680695-1.1790695,0.1426468-1.6832352
					C86.498558,63.5914841,85.7447968,63.5273399,85.2406311,63.9528618z">
     </path>
     <path class="st0" d="M95.9708481,51.4815521c-2.4940414,0-4.5113449,1.2819824-5.6802826,3.6095619
					c-1.5265656,3.0398445-1.2208481,7.2888832,0.7111969,9.8838387c1.1319504,1.5199203,2.7058868,2.3952332,4.5516205,2.5312576
					c0.1746063,0.0130692,0.3487625,0.0191116,0.5222244,0.0191116c2.3694839,0,4.5967484-1.1494446,5.4865341-2.0355072
					c0.4675446-0.4656525,0.4689331-1.221756,0.0035172-1.6892967c-0.4661331-0.4677582-1.2222366-0.4691429-1.6893005-0.0034904
					c-0.4490967,0.4474487-2.2781296,1.4646454-4.1472015,1.3267517c-1.1661148-0.0860748-2.0857697-0.6014404-2.8113174-1.5756798
					c-0.6596603-0.8858223-1.0575409-2.0695724-1.1775589-3.309082h9.258934c0.618454,0,1.1347504-0.4721756,1.1897888-1.0883102
					c0.0130692-0.1472054,0.2979279-3.6312523-1.7499313-5.8697243
					C99.3467712,52.0869598,97.8434067,51.4815521,95.9708481,51.4815521z M91.8562164,57.8500671
					c0.1194458-0.595829,0.3085327-1.1676483,0.5692444-1.6869583c0.5252762-1.0458603,1.5666962-2.2926064,3.5453873-2.2926064
					c1.1869049,0,2.069931,0.3322334,2.6991348,1.0157814c0.7815475,0.8489647,1.0393372,2.081234,1.1184158,2.9637833H91.8562164z">
     </path>
     <path class="st0" d="M137.0140533,51.6749611c-2.526825,0-4.5585938,1.2901306-5.7211151,3.6326637
					c-1.4788513,2.9803619-1.15271,7.1257896,0.7589264,9.6428146c1.1328583,1.4914703,2.6768188,2.3499908,4.4645691,2.4825058
					c0.1616821,0.0118942,0.3231201,0.0177231,0.4843292,0.0175095c2.2590027,0,4.4363556-1.1266098,5.3242798-1.9932938
					c0.4721832-0.460762,0.4812775-1.2171021,0.0205231-1.689064c-0.4607544-0.4724121-1.2173309-0.4812775-1.6890564-0.0205193
					c-0.5137177,0.5013466-2.2620239,1.4300957-3.9634705,1.3029594c-1.1160889-0.0828247-2.0119476-0.5881348-2.7389069-1.5451279
					c-0.6473846-0.8526878-1.0414124-1.997261-1.1641388-3.1977806h8.9807434c0.598175,0,1.1041718-0.4425774,1.1837463-1.0353699
					c0.0193634-0.1441727,0.4523468-3.5566025-1.49263-5.7806206
					C140.4078217,52.2861977,138.9112091,51.6749611,137.0140533,51.6749611z M132.9071045,57.9186783
					c0.1133881-0.5459251,0.2881317-1.0701332,0.5256195-1.5490913c0.5221252-1.051712,1.5670624-2.3056755,3.5813293-2.3056755
					c1.1902924,0,2.0551147,0.3249931,2.6437073,0.9936142c0.7227478,0.8209648,0.9180298,2.0121651,0.9555817,2.8611526
					H132.9071045z">
     </path>
     <path class="st0" d="M153.1590881,52.6279869c-2.0264282-0.6317825-3.7493134-0.525856-5.1206207,0.3154106v-0.0604172
					c0-0.6597786-0.534729-1.1944733-1.1944733-1.1944733c-0.6597595,0-1.1944885,0.5346947-1.1944885,1.1944733v12.3205948
					c0,0.6597519,0.534729,1.1944733,1.1944885,1.1944733c0.6597443,0,1.1944733-0.5347214,1.1944733-1.1944733v-8.3727798
					c0.0606537-0.252655,0.3609009-1.3041039,1.2444-1.8486176c0.7586823-0.4670639,1.8229675-0.4917908,3.1651306-0.0735092
					c0.6291962,0.196682,1.299469-0.1548996,1.4958801-0.7847939
					C154.1403198,53.494194,153.7889862,52.8244057,153.1590881,52.6279869z">
     </path>
     <path class="st0" d="M91.3147354,19.5862465c0.6596375,0,1.1944733-0.5348148,1.1944733-1.1944771V9.0630798
					c0.0187759-0.0814161,0.0304413-0.165411,0.0317307-0.252202c0.008049-0.5644617,0.6574402-1.6528921,1.6568832-2.073873
					c0.7698593-0.3238225,1.4935455-0.1496677,2.2129059,0.5331903c0.4782715,0.4541159,1.2346115,0.4345264,1.6886063-0.0439806
					c0.4542389-0.4784832,0.4346237-1.234467-0.0438614-1.6887026c-1.3990631-1.3281617-3.143074-1.6932652-4.7849045-1.0021176
					c-0.2650299,0.1116357-0.5202408,0.2527752-0.7649612,0.4131694c-0.0195007-0.6426282-0.5434647-1.1585462-1.1908722-1.1585462
					c-0.6596375,0-1.1944733,0.5348146-1.1944733,1.1944759v13.4072762
					C90.1202621,19.0514317,90.655098,19.5862465,91.3147354,19.5862465z">
     </path>
     <path class="st0" d="M85.3066635,30.8412685c-1.0820236-1.3616314-2.8379288-1.8144569-3.8909073-1.8407116
					c-1.6791458-0.0774498-2.9716187,0.3301296-3.9390945,0.9354172l-0.0010529-0.6269798
					c-0.0011673-0.6589451-0.5356522-1.1923981-1.1944733-1.1923981c-0.0006943,0-0.0013885,0-0.0021057,0
					c-0.6596375,0.0011711-1.1935425,0.5368214-1.1923752,1.196579l0.0273056,15.8987846
					c0.0011749,0.6590652,0.5356522,1.1923752,1.1944809,1.1923752c0.0005722,0,0.0013809,0,0.0020981,0
					c0.6596375-0.0011711,1.1935425-0.5368233,1.1923752-1.196579l-0.0201874-11.7455215
					c0.1553802-0.4362717,0.966423-2.2104721,3.8587112-2.0738716c0.2301483,0.0079308,2.2548065,0.1300545,2.4954453,1.9490509
					c0.2032089,1.5360222,0.1597061,7.4843712,0.1257553,9.646801c-0.0102692,0.6595192,0.5160599,1.2026482,1.1755829,1.2129211
					c0.006424,0.0002136,0.012825,0.0002136,0.0191345,0.0002136c0.6510086,0,1.1837463-0.522583,1.1940002-1.1757927
					c0.0045624-0.2935066,0.1003342-6.5789604-0.0794373-9.2745819c0.1881561-0.5644608,1.0363083-2.489624,3.8264084-2.3586121
					c0.2300339,0.0079308,2.2545776,0.1300545,2.4952164,1.9490509c0.2032013,1.5360222,0.1596985,7.4843712,0.1257553,9.646801
					c-0.0102768,0.6595192,0.5160599,1.2026482,1.1755753,1.2129211c0.006424,0.0002136,0.0128326,0.0002136,0.0191422,0.0002136
					c0.6510086,0,1.1837463-0.522583,1.1939926-1.1757927c0.0050201-0.3245163,0.121666-7.9732475-0.1460342-9.9974556
					c-0.4102554-3.100502-3.3022003-3.9864445-4.7893524-4.0236645
					C87.8836517,28.8967571,86.3131027,29.7725468,85.3066635,30.8412685z">
     </path>
     <path class="st0" d="M102.8721085,14.9779577c0.0039597-0.058219,0.0041962-0.1082439-0.0002441-0.1663427
					c-0.0240097-0.4198103-0.0109634-5.2580357,0.0030365-8.2091084c0.0030289-0.6596375-0.5291061-1.1969366-1.1888657-1.2000661
					c-0.0018616,0-0.0037231,0-0.0058289,0c-0.6569595,0-1.1912231,0.5310879-1.1942596,1.1888618
					c-0.0081482,1.7605863-0.031723,7.3511643-0.0013885,8.2933426c-0.0548248,1.1247177,0.3991699,2.5661411,1.5528183,3.3138351
					c0.3294144,0.2135963,0.8725204,0.4647465,1.6046143,0.4646263c0.5431061,0,1.1902695-0.1381283,1.9309921-0.5321617
					c0.5825424-0.3098011,0.8034744-1.0331516,0.4936523-1.6155777c-0.3095856-0.5824261-1.0330353-0.8033562-1.6153412-0.4936523
					c-0.345993,0.1838531-0.8198166,0.3634777-1.1144714,0.1721706
					C103.0475464,16.0064487,102.8389893,15.4608841,102.8721085,14.9779577z">
     </path>
     <path class="st0" d="M115.2223358,53.0348473c-1.0255737-1.0176468-2.4596405-1.5675087-4.0551453-1.5385818
					c-1.4476089,0.0233192-2.5671921,0.4028969-3.4063568,0.8757896l0.0002365-0.0601997
					c0.0023193-0.6597557-0.5307541-1.1963387-1.1903-1.1986809c-0.0013809,0-0.0027924,0-0.0041809,0
					c-0.6578903,0-1.1921539,0.5321617-1.1944733,1.1902962l-0.0434036,12.4766579
					c-0.0023193,0.6597824,0.5307541,1.1963425,1.1902695,1.1986847c0.0014114,0,0.0028152,0,0.0042038,0
					c0.6578903,0,1.1921616-0.5321426,1.1944733-1.1902771l0.0322113-9.2800484
					c0.003479-0.0060692,0.0083771-0.0105095,0.0116501-0.0165558c0.0385132-0.0639267,0.9716873-1.5670547,3.4441528-1.6071892
					c1.196106-0.0139999,1.9342651,0.4495506,2.3343658,0.8461647c0.4553833,0.4518929,0.7248535,1.0615082,0.7201767,1.6309853
					c-0.018425,2.3068199-0.0002136,9.8625717,0,9.9386368c0.0016479,0.6585846,0.5361252,1.1914444,1.1944733,1.1914444
					c0.0009537,0,0.0018845,0,0.0030365,0c0.6595383-0.0016251,1.1930847-0.5377502,1.1914368-1.1975098
					c-0.000206-0.0758286-0.0184174-7.6189919,0-9.9134598C116.6587448,55.1634521,116.1387177,53.9437714,115.2223358,53.0348473z">
     </path>
     <path class="st0" d="M161.1826019,14.8104439c-0.2787933-3.7944441-2.763855-4.5125151-4.5784302-5.0368662
					c-1.222229-0.3532066-2.2776794-0.6582279-2.9992523-1.6607037c-0.5067291-0.7039766-0.6217499-1.6733179-0.2797241-2.3572268
					c0.4045105-0.8084931,1.3286133-0.9944253,2.0324707-1.0080662c1.6965332-0.0316296,2.4381866,0.7094469,2.4689789,0.7410531
					l0.1026306,0.0899439c0.4533081,0.3977604,1.132431,0.3936753,1.5810547-0.0094604l0,0
					c0.4789581-0.4151521,0.5391388-1.1366153,0.1355438-1.6252518l-0.0457153-0.0553997
					c-0.1432495-0.1622577-1.4678955-1.583039-4.2886963-1.5293832c-1.8985443,0.036742-3.4012299,0.8852501-4.1228027,2.3278186
					c-0.7453766,1.4904194-0.5582733,3.3829236,0.4773407,4.8215499c1.2040253,1.6727209,2.9068451,2.1647491,4.2749023,2.5601921
					c1.7991943,0.5197649,2.7022705,0.7807102,2.8592834,2.9168873c0.0664978,0.9070606-0.1721954,1.6596756-0.7099152,2.2373257
					c-0.5946808,0.638876-1.5607605,1.0351315-2.522171,1.0351315c-0.0020905,0-0.0044403,0-0.006546,0
					c-2.0072632-0.0036297-3.5309296-1.2259865-3.5439758-2.8433065c-0.0056152-0.6829767-0.5732269-1.2280645-1.2747498-1.1823397
					c-0.6401672,0.0418787-1.1251678,0.6116915-1.1135101,1.2532682c0.0531769,2.9402266,2.5916748,5.1552629,5.9280396,5.1613302
					c0.0035095,0,0.0070038,0,0.0107422,0c1.627243-0.0001183,3.2232056-0.6710796,4.2707214-1.7963963
					C160.8336029,17.7819424,161.2983246,16.3849545,161.1826019,14.8104439z">
     </path>
     <path class="st0" d="M168.6800385,20.7368603c0.0034943,0,0.0067596,0,0.0102692,0
					c1.6064758,0,3.1873016-0.6603298,4.2303619-1.767561c1.0043335-1.0660458,1.4835052-2.4681454,1.3857727-4.0547924
					c-0.2339935-3.8009901-2.5401459-4.5909204-4.3932037-5.2256174c-1.1739502-0.4022045-2.187851-0.7494621-2.9138794-1.7578864
					c-0.5190735-0.721344-0.6578979-1.6890607-0.3370972-2.353476c0.3751373-0.7770071,1.2880249-0.9797335,1.987915-1.0129876
					c1.0664062-0.0500245,1.8738251,0.2044945,2.3954773,0.7582297c0.3833008,0.4071012,0.4966888,0.8542175,0.5046082,0.8873281
					c0.1299591,0.638782,0.750061,1.0566096,1.391861,0.9354181c0.6483307-0.1222663,1.0747833-0.747025,0.952301-1.3952436
					c-0.247757-1.311821-1.6864777-3.7499857-5.3576355-3.5718653c-2.5704651,0.1220038-3.6256561,1.5314615-4.026001,2.3607147
					c-0.7061768,1.4631138-0.4903717,3.3424306,0.5496521,4.7874599c1.1706848,1.6263266,2.7829895,2.1785336,4.0787354,2.6223764
					c1.7067871,0.5846243,2.6469727,0.906703,2.7829742,3.1122789c0.0569305,0.9244289-0.1922302,1.6881285-0.7402344,2.2699823
					c-0.6000519,0.6368942-1.5308838,1.0166893-2.4911499,1.0166893c-0.0021057,0-0.0042114,0-0.0065308,0
					c-2.0072784-0.0037251-3.5309296-1.2260818-3.5440063-2.8434019c-0.0053406-0.6596375-0.5377502-1.186903-1.2042694-1.1848001
					c-0.6595154,0.0053749-1.190033,0.5445137-1.1846771,1.2042704
					C162.7755585,18.489645,165.324295,20.7306728,168.6800385,20.7368603z">
     </path>
     <path class="st0" d="M142.1708374,20.1998253c0.0944824,0.0036068,0.189209,0.0054703,0.2836914,0.0054703
					c2.0800629,0,4.1265259-0.8780117,4.9428406-2.1439896c0.3574066-0.5545464,0.1978302-1.2937374-0.35672-1.6511478
					c-0.5545197-0.357769-1.2936249-0.1978283-1.6510315,0.3565998c-0.263382,0.4089642-1.5320587,1.106514-3.1261597,1.0458584
					c-1.0827484-0.0421181-2.5688324-0.4544506-3.5003815-2.1803722c-0.3548279-0.657321-0.6329346-1.4758472-0.7983398-2.3484831
					h8.8776245c0.6198578,0,1.1368561-0.4743032,1.190033-1.0919428c0.0140076-0.1628551,0.3193817-4.0136309-1.7858887-6.3198771
					c-1.0080566-1.1043167-2.3590851-1.6686587-4.0157013-1.6771636c-0.0168152-0.0001192-0.0336151-0.0001192-0.0506439-0.0001192
					c-3.2369843,0-4.8796082,1.6010995-5.687973,2.948277c-1.7187195,2.863709-1.1958923,7.0958085,0.1684113,9.6239414
					C137.8051758,18.8869514,139.7618256,20.1061535,142.1708374,20.1998253z M138.5405121,8.3721704
					c0.7220459-1.2033386,1.9125519-1.7885604,3.6387177-1.7885604c0.0130615,0,0.0261383,0,0.039444,0.0001197
					c0.9728241,0.0050168,1.7119141,0.2973289,2.2589874,0.8938742c0.8144379,0.8881645,1.0971985,2.3433466,1.1704407,3.4172049
					h-7.8310242C137.8849487,9.9679193,138.1121826,9.0860615,138.5405121,8.3721704z">
     </path>
     <path class="st0" d="M157.4029694,33.0977058c-0.618454-3.0890598-3.3603973-4.1075172-4.7240143-4.2144947
					c-0.0123749-0.0009308-0.0247192-0.0017433-0.0370941-0.0023174c-2.3824158-0.1134987-3.9756012,0.7479343-4.962677,1.7711697
					c-1.143158-1.3555641-2.8713989-1.7725792-3.9028015-1.7725792c-0.0009308,0-0.0018616,0-0.0030365,0
					c-1.5586395-0.0675354-2.7500916,0.2778587-3.6433868,0.8129139l-0.0006866-0.4056931
					c-0.0011749-0.6590633-0.5356598-1.1924934-1.1944885-1.1924934c-0.0007172,0-0.0014038,0-0.0020905,0
					c-0.6595459,0.0011711-1.1935425,0.5368214-1.1923828,1.1964588l0.0275269,16.3778439
					c0.0011749,0.6588249,0.5356445,1.1923752,1.1944733,1.1923752c0.0006866,0,0.0014038,0,0.0021057,0
					c0.6595154-0.0011482,1.1935425-0.5368004,1.1923676-1.1965561l-0.0202789-12.1462212
					c0.025177-0.0688248,0.0459442-0.1403275,0.058548-0.21558c0.0716248-0.3640518,0.5713501-2.1760464,3.4980316-2.0352669
					c0.0228882,0.0009327,0.0464325,0.0012913,0.0686035,0.0011711c0.0884247,0.0003586,2.1430664,0,2.5832672,1.9553795
					c0.2568665,4.007206,0.1294861,9.483017,0.1280975,9.5382996c-0.0156403,0.6595421,0.506012,1.206852,1.1655426,1.2227135
					c0.0097961,0.0002365,0.0195923,0.0004539,0.0291595,0.0004539c0.6464691,0,1.1781464-0.516037,1.1937714-1.16576
					c0.0051422-0.2244453,0.1255188-5.38274-0.1145477-9.4539909c0.055069-0.1894226,0.7206573-2.2334576,3.7577057-2.0994358
					c0.1749573,0.0186806,2.1353607,0.2733192,2.5513306,2.2776737c0.3900604,2.525074,0.2547607,9.3958931,0.2533417,9.4651718
					c-0.0135193,0.6595421,0.5102386,1.205204,1.169754,1.2187462c0.0084076,0.0002403,0.0165863,0.0002403,0.0249634,0.0002403
					c0.6483459,0,1.180481-0.518856,1.1937866-1.1699905c0.0060577-0.2927895,0.1418304-7.1993942-0.2862396-9.911808
					C157.4090271,33.1299095,157.4062347,33.1138077,157.4029694,33.0977058z">
     </path>
     <path class="st0" d="M174.9281769,46.3142967c-0.2039032-0.5699577-0.8289032-0.8786087-1.4203033-0.7495842
					c-0.5792694,0.1264496-0.8529358-0.0079308-1.0090179-0.1222649c-0.5335388-0.3902817-0.7397766-1.3838959-0.776413-1.7441025
					V32.9244804c0.0298615-0.4585342,0.0961304-2.7564907-1.4025574-4.3096676
					c-0.625946-0.6483383-1.7770233-1.3996639-3.7112885-1.31077c-4.7107239,0.2225552-5.4766235,3.5812054-5.506958,3.7239933l0,0
					c-0.1446228,0.4433651,0.1164093,0.916378,0.5685425,1.0305691l0.577652,0.1458244
					c0.5153503,0.1300545,1.0414429-0.1705475,1.1909637-0.6806622l-0.0055847,0.0243912
					c0.0457153-0.1763763,0.5272369-1.7273312,3.2883148-1.8577442c0.8438263-0.0408268,1.4557495,0.148737,1.8728943,0.5768356
					c0.7075806,0.7259083,0.7759247,2.0659409,0.7432709,2.5153999c-0.0027924,0.0328941-0.0042114,0.0659103-0.0042114,0.0989037
					v0.5972366c-1.1072083,0.2002907-3.0197754,0.6054077-5.0909729,1.3096237
					c-1.8435059,0.6268616-3.1760864,2.1664925-3.5645294,4.1188393c-0.3683777,1.8520126,0.2106628,3.7118607,1.5115356,4.8543053
					c0.9238434,0.8111687,2.1876221,1.2299271,3.5463257,1.2299271c0.8925934-0.0002174,1.8262329-0.1807976,2.7312012-0.5498657
					c0.3147125-0.1283112,0.6096191-0.2755165,0.8860626-0.4360313c0.0685883,0.5848618,0.3825836,2.3649178,1.7217102,3.3550186
					c0.4304504,0.3182335,1.0944061,0.6429634,2.0105438,0.6429634c0.3018951,0,0.631073-0.0352135,0.9882355-0.1175613
					C174.7630005,47.7271233,175.1743011,47.0013351,174.9281769,46.3142967z M167.5651093,42.2294998
					c-1.1891022,0.4850273-2.8249817,0.5918846-3.7994537-0.2631454c-0.6618652-0.5813751-0.9471741-1.574749-0.7446899-2.592968
					c0.2202454-1.1057281,0.9642334-1.9741592,1.990509-2.323185c1.6930237-0.5755234,3.2668304-0.9353943,4.3220062-1.1407967
					v4.656929c-0.0020752,0.0179634-0.0079193,0.0345192-0.0093079,0.0527229
					C169.2891693,41.0772591,168.6739655,41.7773666,167.5651093,42.2294998z">
     </path>
     <path class="st0" d="M132.4766846,42.9965897c0.6828613,0,1.5395203-0.2339973,2.4624329-1.0405083
					c0.4966888-0.4339294,0.5475616-1.1886444,0.1133881-1.6853333c-0.4339294-0.4969254-1.1884155-0.5477867-1.6853333-0.1133804
					c-0.3053741,0.2668953-0.7463074,0.5538559-1.1076813,0.4089661c-0.3779449-0.1516495-0.7036285-0.7211037-0.7577515-1.3247681
					c-0.1672821-1.8636932,0.0025787-9.929657,0.0044403-10.0108566c0.0139923-0.6595192-0.5093079-1.2056808-1.1688232-1.2197762
					c-0.6614075-0.0071182-1.2056732,0.5091572-1.2196808,1.1686764c-0.0072174,0.3372478-0.1742706,8.2807293,0.0044403,10.2753124
					c0.1371765,1.529026,1.019516,2.8357086,2.247818,3.3284302
					C131.639389,42.8915977,132.0189667,42.9965897,132.4766846,42.9965897z">
     </path>
     <path class="st0" d="M128.5803986,24.1743717c-0.026123,0.9415817,0.6485596,1.7252293,1.5085144,1.7501945
					c0.859436,0.0242481,1.5779877-0.7192669,1.6050568-1.6608467c0.0270691-0.9418221-0.6485443-1.7254448-1.5075378-1.7501945
					C129.3264923,22.4890385,128.6079254,23.2325516,128.5803986,24.1743717z">
     </path>
    </g>
   </g>
   <g>
    <path class="st3" d="M77.867775,84.3681488c-0.4728851,0-0.9539261-0.1392746-1.4434052-0.4178238v2.1906433
				c0,0.2953491-0.0528412,0.5083466-0.158287,0.6392365c-0.10569,0.130867-0.2891617,0.1961823-0.5507965,0.1961823h-0.5063858
				l-0.0760422-0.0758057v-8.8757629l0.0760422-0.0758057h0.4051132c0.4220352,0,0.6793747,0.2150803,0.7723312,0.6455231
				c0.4894714-0.5062485,1.0763168-0.7596207,1.7599869-0.7596207c0.3374634,0,0.6413345,0.0760651,0.9116211,0.2279282
				c0.2700272,0.1518936,0.4957352,0.3716507,0.6773682,0.6583786c0.1813889,0.2871704,0.3206635,0.6310654,0.4178238,1.0318527
				c0.0969467,0.4010391,0.1455841,0.8547974,0.1455841,1.3612976c0,0.5062485-0.0632095,0.9621048-0.1898956,1.3673401
				c-0.1265717,0.4052429-0.3018951,0.7470016-0.525383,1.0255814c-0.2238693,0.2785492-0.4834061,0.4917908-0.7787476,0.6394501
				C78.5091171,84.2941895,78.1969528,84.3681488,77.867775,84.3681488z M77.8171539,78.9365311
				c-0.5488358,0-1.0129623,0.2750702-1.3927841,0.8254089v3.1107788c0.219429,0.1441727,0.4324265,0.2564011,0.6393585,0.336647
				c0.20681,0.0804825,0.4030151,0.1206207,0.588829,0.1206207c0.3966141,0,0.7153015-0.1945801,0.9559402-0.5839539
				c0.2405167-0.3893585,0.3608017-0.9439011,0.3608017-1.66362c0-0.7362976-0.1097717-1.2782364-0.3291931-1.6251602
				C78.4205856,79.1101151,78.1463318,78.9365311,77.8171539,78.9365311z">
    </path>
    <path class="st3" d="M86.5282059,81.5447922h-3.7224884c0.025322,0.5823059,0.1496658,1.0297852,0.3735123,1.3421631
				c0.2235107,0.3123779,0.601326,0.4684448,1.1331253,0.4684448c0.2532349,0,0.5255051-0.0380325,0.8166428-0.1140671
				c0.2912827-0.0758286,0.5929413-0.1980667,0.9053192-0.3672104c0.2108917,0.1943207,0.350174,0.4728928,0.4178238,0.8356552
				c-0.6753769,0.4728928-1.4687042,0.7092361-2.3803253,0.7092361c-0.481163,0-0.8862762-0.0846863-1.2154541-0.2533722
				c-0.3291931-0.168663-0.5972366-0.400795-0.8040695-0.6963806c-0.2069321-0.2953491-0.3566971-0.647644-0.4494324-1.0573044
				c-0.0929794-0.4092026-0.1392746-0.8501282-0.1392746-1.3230209c0-0.464035,0.0589066-0.8967896,0.1773071-1.2978287
				c0.1180344-0.4007874,0.2868118-0.7449188,0.5063629-1.0318604c0.2194214-0.2869568,0.4916687-0.5127869,0.816658-0.6775055
				c0.324852-0.1644745,0.6900711-0.2468262,1.095192-0.2468262c0.4052353,0,0.7660446,0.0676575,1.0826263,0.2025146
				c0.3165894,0.1353073,0.5844116,0.3228683,0.8040466,0.5636215c0.2193069,0.2405472,0.3861084,0.527504,0.500061,0.8608856
				c0.1139755,0.3335953,0.1709061,0.694519,0.1709061,1.0824814c0,0.1688995-0.0063095,0.3357162-0.018898,0.5001984
				C86.5851364,81.2093124,86.5617981,81.3758926,86.5282059,81.5447922z M84.0971375,78.8098755
				c-0.8019485,0-1.2325058,0.5951309-1.29142,1.7851639h2.557518v-0.1644516c0-0.4810638-0.1034698-0.8716125-0.3101578-1.1711655
				C84.8461456,78.959877,84.5276718,78.8098755,84.0971375,78.8098755z">
    </path>
    <path class="st3" d="M90.2758789,77.8981552c0.4558563,0,0.9325943,0.1392746,1.4307861,0.4178238v-3.2918091
				l0.0886536-0.0760651h0.4937744c0.2614212,0,0.4431534,0.0632401,0.5443954,0.1899261
				c0.101265,0.1266632,0.151886,0.3420029,0.151886,0.6457596v6.6853333c0,0.5909348,0.1182785,0.9919662,0.3545914,1.2026215
				c-0.0338211,0.118515-0.0970383,0.2449646-0.1898956,0.3800583c-0.093071,0.1350708-0.1898956,0.2318954-0.2911377,0.2911453
				c-0.481308-0.0928574-0.8148041-0.3546143-1.0003738-0.7850342c-0.4981003,0.5741348-1.1058273,0.8610992-1.8232269,0.8610992
				c-0.7174988,0-1.2620087-0.2890625-1.6333008-0.8674088c-0.3715286-0.5781021-0.557106-1.3820572-0.557106-2.4120483
				c0-0.5146561,0.0653152-0.9728317,0.1962051-1.3736496c0.1307449-0.400795,0.3058548-0.740715,0.5254974-1.0192719
				c0.2193985-0.2785492,0.476738-0.4894485,0.7723236-0.6331635C89.6343002,77.969986,89.9466782,77.8981552,90.2758789,77.8981552
				z M90.3266144,83.3299866c0.5485992,0,1.0085449-0.2659607,1.3800507-0.7976456v-3.139946
				c-0.4728928-0.3039703-0.8821869-0.455864-1.2281799-0.455864c-0.3797989,0-0.6921768,0.1899261-0.9369278,0.5697174
				c-0.2449341,0.3798218-0.3672028,0.9413452-0.3672028,1.6839294c0,0.734436,0.1096497,1.2747421,0.3291931,1.6207123
				C89.7229538,83.1570969,89.9973297,83.3299866,90.3266144,83.3299866z">
    </path>
    <path class="st3" d="M96.4801483,79.0884247v5.1658707c-0.1605072,0.0335846-0.3779526,0.050621-0.6520615,0.050621
				c-0.2743683,0-0.4917908-0.0170364-0.6520615-0.050621v-4.6341858c0-0.2360992-0.0422363-0.4049988-0.1266861-0.5062637
				c-0.0844498-0.1014862-0.2279358-0.1521072-0.4304199-0.1521072h-0.1392746
				c-0.0422363-0.1854782-0.0632324-0.3417664-0.0632324-0.4684525c0-0.126442,0.0209961-0.2867203,0.0632324-0.4810638
				c0.2785492-0.0335846,0.544487-0.050621,0.7976227-0.050621h0.1773071c0.3207855,0,0.5718155,0.1012421,0.7533112,0.3037567
				C96.3893967,78.4680862,96.4801483,78.7424316,96.4801483,79.0884247z M94.8974686,76.8219528
				c-0.0760651-0.151886-0.1138535-0.3373413-0.1138535-0.557106c0-0.3459854,0.0632324-0.5505753,0.1898956-0.6140518
				c0.1264496-0.0632095,0.3373413-0.099144,0.6329269-0.1075516c0.3375854,0.0084076,0.5529251,0.0506439,0.6457825,0.1266861
				c0.0928345,0.0758286,0.1434784,0.2743683,0.1518631,0.5949173c-0.0083847,0.3039703-0.0590286,0.4983139-0.1518631,0.5825272
				c-0.0928574,0.0844498-0.308197,0.1308899-0.6457825,0.1392746
				C95.2772675,76.9866486,95.0409546,76.9318237,94.8974686,76.8219528z">
    </path>
    <path class="st3" d="M103.3300705,83.6717453c-0.1012497,0.3039932-0.2659683,0.5277252-0.49366,0.6712036
				c-0.4983139-0.0928574-0.8356552-0.3546143-1.0129623-0.7850342c-0.5995789,0.5741348-1.215477,0.8610992-1.8486404,0.8610992
				c-0.3210297,0-0.6014481-0.0508652-0.8422012-0.1521301c-0.240303-0.1012421-0.4427948-0.2384186-0.6075134-0.4115219
				c-0.1646957-0.1728668-0.2869339-0.37117-0.3672028-0.5948944c-0.080246-0.2237473-0.1203842-0.457962-0.1203842-0.702713
				c0-0.6921768,0.2216492-1.2156906,0.6648941-1.5700684c0.4427948-0.3546143,1.0316467-0.5319214,1.7660599-0.5319214
				c0.2108917,0,0.4180679,0.006546,0.620575,0.0191345c0.2024918,0.0125885,0.400795,0.0359344,0.594902,0.069519v-0.497139
				c0-0.7573013-0.3462067-1.1361618-1.0381699-1.1361618c-0.4810638,0-1.1436157,0.1647186-1.9876785,0.4938889
				c-0.2449646-0.2108917-0.3718872-0.5274811-0.3798218-0.9497528c0.8608627-0.3879623,1.7343292-0.5823059,2.6208496-0.5823059
				c0.658371,0,1.1688156,0.175209,1.5318222,0.525383c0.3630219,0.3504105,0.5445099,0.8799896,0.5445099,1.5889816v2.5956497
				C102.9754486,83.1064758,103.0935135,83.4692612,103.3300705,83.6717453z M100.1899033,83.3806076
				c0.5403137,0,1.0381699-0.2531357,1.4940338-0.759613v-1.2028885c-0.1688995-0.0167923-0.3462067-0.0293808-0.5314484-0.0380096
				c-0.1861725-0.0081711-0.3802719-0.0126114-0.5827866-0.0126114c-0.3882065,0-0.6900711,0.0949631-0.9051743,0.2848587
				s-0.3228912,0.4411697-0.3228912,0.7533112c0,0.3039932,0.0760651,0.5426483,0.2281723,0.7155151
				C99.7214355,83.2942963,99.9281464,83.3806076,100.1899033,83.3806076z">
    </path>
    <path class="st3" d="M107.8877335,77.9868088c0.0424728,0.143692,0.0634689,0.3084106,0.0634689,0.493866
				c0,0.1857147-0.0209961,0.3462296-0.0634689,0.4810638l-1.5569992-0.0252075v3.7747421
				c0,0.3702393,0.1726227,0.5554733,0.5188293,0.5554733h0.8739243c0.0672073,0.1878204,0.1012726,0.3779602,0.1012726,0.5704117
				c0,0.1922379-0.0088654,0.3182068-0.0256805,0.3779297c-0.4894485,0.0597305-0.9621048,0.0898285-1.4179688,0.0898285
				c-0.886055,0-1.3293228-0.4346237-1.3293228-1.3041306v-4.0516357l-0.9369049,0.0125885
				c-0.0340652-0.1432419-0.0508575-0.301651-0.0508575-0.4747543c0-0.1728668,0.0167923-0.3396912,0.0508575-0.5001755
				l0.9369049,0.0254135V76.897995c0-0.3039703,0.0504074-0.5190735,0.1521225-0.6457596
				c0.1012421-0.1266861,0.28228-0.1898956,0.5440369-0.1898956h0.494133l0.0886536,0.0886536v1.8738251L107.8877335,77.9868088z">
    </path>
    <path class="st3" d="M108.9389648,78.6073608c0.0844498-0.3121414,0.2449646-0.5445175,0.4810638-0.6963806
				c0.5823059,0.1264496,0.9663086,0.5022812,1.1524811,1.1268234c0.3373413-0.7512283,0.8902664-1.1268234,1.6582642-1.1268234
				c0.2029648,0,0.4264755,0.025177,0.6714401,0.0758286c0,0.4896851-0.1059265,0.9033051-0.3168259,1.2408905
				c-0.0760651-0.0254211-0.2491684-0.0462036-0.5188522-0.0632324c-0.5743713,0-1.0255585,0.3207855-1.3549652,0.9621277v4.1277008
				c-0.1605148,0.0335846-0.3779602,0.050621-0.6518555,0.050621c-0.2748184,0-0.4917831-0.0170364-0.6522751-0.050621v-4.342804
				C109.4074402,79.3375931,109.2511292,78.9029465,108.9389648,78.6073608z">
    </path>
    <path class="st3" d="M115.7003708,79.0884247v5.1658707c-0.1605148,0.0335846-0.3779602,0.050621-0.6523056,0.050621
				s-0.4917908-0.0170364-0.651825-0.050621v-4.6341858c0-0.2360992-0.0424728-0.4049988-0.1269226-0.5062637
				c-0.0844498-0.1014862-0.2276917-0.1521072-0.4301834-0.1521072h-0.1395111
				c-0.0419998-0.1854782-0.0629959-0.3417664-0.0629959-0.4684525c0-0.126442,0.0209961-0.2867203,0.0629959-0.4810638
				c0.2785492-0.0335846,0.5445099-0.050621,0.7978592-0.050621h0.1773071c0.320549,0,0.5715866,0.1012421,0.7530746,0.3037567
				C115.609375,78.4680862,115.7003708,78.7424316,115.7003708,79.0884247z M114.117691,76.8219528
				c-0.0760651-0.151886-0.1138611-0.3373413-0.1138611-0.557106c0-0.3459854,0.0629959-0.5505753,0.1898956-0.6140518
				c0.1264496-0.0632095,0.3373489-0.099144,0.6327133-0.1075516c0.3377991,0.0084076,0.5529022,0.0506439,0.6457596,0.1266861
				c0.0928574,0.0758286,0.1437225,0.2743683,0.1521072,0.5949173c-0.0083847,0.3039703-0.0592499,0.4983139-0.1521072,0.5825272
				c-0.0928574,0.0844498-0.3079605,0.1308899-0.6457596,0.1392746
				C114.4974823,76.9866486,114.2609329,76.9318237,114.117691,76.8219528z">
    </path>
    <path class="st3" d="M121.0055161,80.4179688v-0.1392746c0-0.9539566-0.369545-1.4307861-1.1081619-1.4307861
				c-0.403595,0-0.7138901,0.194313-0.9322433,0.5823059c-0.2183762,0.3884201-0.3275528,0.9667587-0.3275528,1.7347794
				c0,1.4517899,0.4754562,2.1775818,1.4258957,2.1775818c0.4707947,0,0.9793777-0.2108994,1.5262299-0.6329269
				c0.1180649,0.0676498,0.2314453,0.1773071,0.3406143,0.3291702c0.1096573,0.1518936,0.1810379,0.2997894,0.2146301,0.4430313
				c-0.6247635,0.6247559-1.3801727,0.9371643-2.2662354,0.9371643c-0.4474487,0-0.8337936-0.0823746-1.1585464-0.2470703
				c-0.3252106-0.1644745-0.5953751-0.3945084-0.8104782-0.690094c-0.2150955-0.2953491-0.3756104-0.6497192-0.4810562-1.0633698
				c-0.1054535-0.41362-0.1581726-0.8694839-0.1581726-1.3675766c0-0.5146561,0.0714035-0.9726181,0.2150955-1.3736496
				c0.1432419-0.400795,0.3354797-0.7365112,0.5762482-1.0066605c0.2402954-0.269928,0.5188522-0.4768524,0.8356705-0.6203384
				c0.3163452-0.1434784,0.651825-0.2153397,1.0064468-0.2153397c0.362999,0,0.6858902,0.055069,0.9686432,0.1647186
				c0.2827606,0.1096573,0.5230408,0.2531128,0.7218018,0.4304199c0.1983032,0.1773071,0.3499603,0.3819199,0.4558563,0.6140289
				c0.1054764,0.2323761,0.1581955,0.4666138,0.1581955,0.7026901c0,0.4813004-0.21978,0.721817-0.658371,0.721817
				C121.3302689,80.4685898,121.1487579,80.4517975,121.0055161,80.4179688z">
    </path>
    <path class="st3" d="M130.69104,83.7226105c-0.4642639,0.4642639-1.0759583,0.6964035-1.8355713,0.6964035
				c-0.4390717,0-0.8277435-0.0781708-1.1650925-0.2342377c-0.3377991-0.156311-0.6224213-0.3800354-0.8547897-0.6712036
				c-0.2318954-0.2911377-0.4092026-0.6371307-0.5314484-1.0381622c-0.1227188-0.400795-0.1838303-0.8503494-0.1838303-1.3484421
				c0-0.4894485,0.0611115-0.9369278,0.1838303-1.3421631c0.1222458-0.4052429,0.2995529-0.7533112,0.5314484-1.0444489
				c0.2323685-0.2914047,0.5169907-0.5148926,0.8547897-0.6712036c0.3373489-0.1560669,0.7260208-0.2342377,1.1650925-0.2342377
				c0.4385834,0,0.8267975,0.0781708,1.1646118,0.2342377c0.3373413,0.156311,0.6224213,0.3797989,0.8547974,0.6712036
				c0.2318878,0.2911377,0.4091949,0.6392059,0.5319214,1.0444489c0.1222382,0.4052353,0.1833496,0.8527145,0.1833496,1.3421631
				C131.5901489,82.2582016,131.2906036,83.1232681,130.69104,83.7226105z M128.8615417,78.835289
				c-0.9159317,0-1.3736572,0.764061-1.3736572,2.2916794c0,1.5278473,0.4577255,2.2916718,1.3736572,2.2916718
				c0.9243011,0,1.3867035-0.7638245,1.3867035-2.2916718C130.2482452,79.59935,129.7858429,78.835289,128.8615417,78.835289z">
    </path>
    <path class="st3" d="M138.1737671,79.9621124v2.9500198c0,0.4981003,0.0718536,0.8820953,0.2155762,1.1522675
				c-0.2197571,0.1856918-0.4773407,0.2785492-0.7726746,0.2785492c-0.286972,0-0.4829254-0.0697556-0.5883789-0.2090378
				c-0.1059113-0.1392746-0.1586456-0.3480682-0.1586456-0.6266174v-3.216011c0-0.4388275-0.0569153-0.7512054-0.1707764-0.9368973
				c-0.1138458-0.1857147-0.3102722-0.2785492-0.5888214-0.2785492c-0.2785797,0-0.5632019,0.069519-0.8543396,0.2087936
				c-0.2916107,0.1392746-0.5468597,0.3315125-0.7661285,0.5762405v4.393425
				c-0.1437225,0.0335846-0.3588257,0.050621-0.6457825,0.050621c-0.1353149,0-0.2575531-0.0044174-0.367218-0.0125885
				c-0.1096497-0.0086288-0.2071686-0.0212402-0.2911377-0.0380325v-6.2294769l0.0760498-0.0758057h0.4936523
				c0.4558563,0,0.6961517,0.2615204,0.721817,0.7847977c0.6158905-0.5652771,1.28685-0.8482742,2.0128784-0.8482742
				c0.5655212,0,0.987793,0.1880341,1.2663422,0.5634155C138.034729,78.8248062,138.1737671,79.3289413,138.1737671,79.9621124z">
    </path>
    <path class="st3" d="M143.4537354,80.4179688v-0.1392746c0-0.9539566-0.3695526-1.4307861-1.1081696-1.4307861
				c-0.4035797,0-0.7138824,0.194313-0.9322357,0.5823059c-0.2183685,0.3884201-0.3275452,0.9667587-0.3275452,1.7347794
				c0,1.4517899,0.4754486,2.1775818,1.4258881,2.1775818c0.4707947,0,0.9793701-0.2108994,1.5262299-0.6329269
				c0.118042,0.0676498,0.2314453,0.1773071,0.3406219,0.3291702c0.1096497,0.1518936,0.1810303,0.2997894,0.2146149,0.4430313
				c-0.6247559,0.6247559-1.3801727,0.9371643-2.2662354,0.9371643c-0.4474487,0-0.833786-0.0823746-1.1585388-0.2470703
				c-0.3252106-0.1644745-0.5953827-0.3945084-0.8104706-0.690094c-0.2151031-0.2953491-0.3756256-0.6497192-0.4810638-1.0633698
				c-0.1054535-0.41362-0.1581726-0.8694839-0.1581726-1.3675766c0-0.5146561,0.0713959-0.9726181,0.2151031-1.3736496
				c0.1432343-0.400795,0.3354797-0.7365112,0.5762329-1.0066605c0.2403107-0.269928,0.5188599-0.4768524,0.8356781-0.6203384
				c0.3163452-0.1434784,0.651825-0.2153397,1.0064392-0.2153397c0.3630066,0,0.6858978,0.055069,0.9686584,0.1647186
				c0.2827301,0.1096573,0.5230255,0.2531128,0.7217865,0.4304199c0.1983185,0.1773071,0.3499603,0.3819199,0.4558563,0.6140289
				c0.1054535,0.2323761,0.1582031,0.4666138,0.1582031,0.7026901c0,0.4813004-0.2197876,0.721817-0.658371,0.721817
				C143.7784882,80.4685898,143.5969696,80.4517975,143.4537354,80.4179688z">
    </path>
    <path class="st3" d="M150.2277222,83.7226105c-0.4642639,0.4642639-1.0764313,0.6964035-1.8360443,0.6964035
				c-0.4390717,0-0.8272705-0.0781708-1.1646118-0.2342377c-0.3377991-0.156311-0.6229095-0.3800354-0.8547974-0.6712036
				c-0.2323761-0.2911377-0.4096832-0.6371307-0.5319214-1.0381622c-0.1222534-0.400795-0.1833496-0.8503494-0.1833496-1.3484421
				c0-0.4894485,0.0610962-0.9369278,0.1833496-1.3421631c0.1222382-0.4052429,0.2995453-0.7533112,0.5319214-1.0444489
				c0.2318878-0.2914047,0.5169983-0.5148926,0.8547974-0.6712036c0.3373413-0.1560669,0.7255402-0.2342377,1.1646118-0.2342377
				c0.4390564,0,0.8272705,0.0781708,1.1650848,0.2342377c0.3373413,0.156311,0.6224213,0.3797989,0.8543091,0.6712036
				c0.2323761,0.2911377,0.4096832,0.6392059,0.5319214,1.0444489c0.1222534,0.4052353,0.1833801,0.8527145,0.1833801,1.3421631
				C151.1263733,82.2582016,150.826828,83.1232681,150.2277222,83.7226105z M148.3982239,78.835289
				c-0.9159241,0-1.3741302,0.764061-1.3741302,2.2916794c0,1.5278473,0.4582062,2.2916718,1.3741302,2.2916718
				c0.9243011,0,1.3862305-0.7638245,1.3862305-2.2916718C149.7844543,79.59935,149.322525,78.835289,148.3982239,78.835289z">
    </path>
    <path class="st3" d="M154.4816284,83.2667465h0.4684601c0.0760651,0.2137146,0.1143341,0.4017563,0.1143341,0.5638885
				c0,0.1625977-0.0130615,0.2906876-0.038269,0.3844528c-0.3378296,0.0597305-0.696167,0.0898285-1.0759583,0.0898285
				c-0.8356781,0-1.2537537-0.4346237-1.2537537-1.3041306v-7.9766159l0.0886536-0.0760651h0.4936523
				c0.2617798,0,0.4451294,0.0655518,0.5510559,0.1959686c0.1054535,0.1306534,0.1581726,0.3436508,0.1581726,0.6385422v6.9151306
				C153.9879761,83.0770874,154.1526947,83.2667465,154.4816284,83.2667465z">
    </path>
    <path class="st3" d="M160.5081482,83.7226105c-0.4642639,0.4642639-1.0759583,0.6964035-1.8355713,0.6964035
				c-0.4390717,0-0.8277435-0.0781708-1.1651001-0.2342377c-0.3377991-0.156311-0.622406-0.3800354-0.8547821-0.6712036
				c-0.2319031-0.2911377-0.4092102-0.6371307-0.5314484-1.0381622c-0.1227264-0.400795-0.1838226-0.8503494-0.1838226-1.3484421
				c0-0.4894485,0.0610962-0.9369278,0.1838226-1.3421631c0.1222382-0.4052429,0.2995453-0.7533112,0.5314484-1.0444489
				c0.2323761-0.2914047,0.516983-0.5148926,0.8547821-0.6712036c0.3373566-0.1560669,0.7260284-0.2342377,1.1651001-0.2342377
				c0.4385834,0,0.8267822,0.0781708,1.1646118,0.2342377c0.3373413,0.156311,0.6224213,0.3797989,0.8547974,0.6712036
				c0.2318878,0.2911377,0.4091949,0.6392059,0.5319214,1.0444489c0.1222382,0.4052353,0.1833496,0.8527145,0.1833496,1.3421631
				C161.4072571,82.2582016,161.1077118,83.1232681,160.5081482,83.7226105z M158.6786346,78.835289
				c-0.9159241,0-1.373642,0.764061-1.373642,2.2916794c0,1.5278473,0.4577179,2.2916718,1.373642,2.2916718
				c0.9243164,0,1.3867188-0.7638245,1.3867188-2.2916718C160.0653534,79.59935,159.602951,78.835289,158.6786346,78.835289z">
    </path>
    <path class="st3" d="M166.7250214,78.4932861c0.1856842-0.2953644,0.4768524-0.4894714,0.8734589-0.5823059
				c0.1012573,0.0676575,0.2006378,0.1688995,0.2976685,0.3037567c0.0970612,0.1350708,0.1582031,0.2575531,0.1833801,0.3672028
				c-0.2360992,0.2279358-0.3541412,0.6289673-0.3541412,1.2028656v3.7476654c0,0.6501999-0.0531921,1.1986847-0.1586456,1.6461563
				c-0.1054535,0.4472122-0.2678223,0.808136-0.4871063,1.0824814c-0.2197571,0.2741318-0.4983368,0.4726562-0.8356781,0.5951385
				c-0.3377991,0.1222382-0.7427979,0.1836166-1.2154846,0.1836166c-0.7516632,0-1.4814148-0.1392822-2.1906433-0.4178543
				c0.0084076-0.4052124,0.1222382-0.7344131,0.3420258-0.9875183c0.5314484,0.2615128,1.1053467,0.3923798,1.7217255,0.3923798
				c0.5995789,0,1.0087585-0.1542053,1.2280579-0.4621429c0.2197571-0.308197,0.3294067-0.740715,0.3294067-1.2978439v-0.5823059
				c-0.4983063,0.4558563-1.0848083,0.6835709-1.7599792,0.6835709c-0.6667633,0-1.1879272-0.2911606-1.5635529-0.8734665
				c-0.3756104-0.58255-0.5636444-1.3843765-0.5636444-2.4057465c0-0.5146561,0.0634766-0.9728546,0.1899261-1.3738861
				c0.1268921-0.400795,0.3041992-0.7404861,0.5318909-1.0190353c0.2277069-0.2785492,0.4875946-0.4917908,0.7787628-0.6394501
				c0.2911377-0.1476822,0.6014404-0.2216492,0.9303741-0.2216492
				C165.6779785,77.8349152,166.2518768,78.0544586,166.7250214,78.4932861z M166.4590454,82.5302353v-3.0858078
				c-0.4222565-0.3807297-0.8356476-0.5713425-1.2406464-0.5713425c-0.4054718,0-0.7260284,0.1906128-0.9625854,0.571579
				c-0.236084,0.3812027-0.3541565,0.943924-0.3541565,1.6888199c0,0.7365189,0.1054688,1.2784729,0.3163605,1.6253738
				c0.210907,0.3469238,0.4852448,0.5205078,0.8230743,0.5205078
				C165.5641327,83.2793655,166.0367889,83.0297165,166.4590454,82.5302353z">
    </path>
    <path class="st3" d="M174.5245667,78.113472l-1.6713409,5.9383316c-0.1520996,0.531662-0.3102722,0.9854431-0.4749756,1.3610382
				c-0.1647186,0.3753738-0.3546143,0.6814728-0.5697174,0.9180222c-0.2151031,0.2360992-0.4684448,0.4092026-0.759613,0.5190735
				c-0.2911377,0.1096573-0.6313019,0.1644821-1.0195007,0.1644821c-0.0676575,0-0.1688995-0.0042038-0.3037415-0.0125885
				c-0.1348572-0.0084152-0.2701569-0.0233459-0.405014-0.044342c-0.1353149-0.0212173-0.2533569-0.0464172-0.354599-0.0760422
				c-0.1012726-0.0296249-0.1521301-0.069519-0.1521301-0.1201401c0-0.1437149,0.0256805-0.3039932,0.0760651-0.4810638
				c0.0508575-0.1773071,0.1222382-0.3123779,0.2155609-0.4052353c0.2785797,0.1096497,0.6075134,0.1644821,0.9873199,0.1644821
				c0.3630066,0,0.6583557-0.1287918,0.8865204-0.3861084c0.2276917-0.257576,0.4217987-0.6520615,0.5823059-1.1837463
				l0.037796-0.1521072c-0.2701721-0.0084076-0.4810638-0.0613708-0.6326904-0.1581726
				c-0.1521301-0.0970612-0.2659607-0.2722702-0.3420258-0.5253983l-1.6713409-5.5330811
				c0.3037567-0.1266861,0.5697174-0.1898956,0.7974091-0.1898956c0.329422,0,0.5487213,0.1941071,0.658844,0.5823059
				l0.8608398,2.9122314c0.0420074,0.1350708,0.1012726,0.35672,0.1773224,0.66465
				c0.0760498,0.3082047,0.1726379,0.7071304,0.291153,1.196579c0.0083923,0.0590363,0.0461884,0.0886536,0.1138458,0.0886536
				l1.3927765-5.3557663c0.0676575-0.0167923,0.1455841-0.0296478,0.2342377-0.0380325
				c0.0886536-0.0084076,0.1875763-0.0125885,0.2976837-0.0125885c0.118042,0,0.2384186,0.0062866,0.3606873,0.018898
				c0.1222382,0.0125885,0.2384186,0.0359039,0.3480682,0.069519L174.5245667,78.113472z">
    </path>
   </g>
  </g>
 </g>
</svg>